<?xml version="1.0" encoding="UTF-8"?>
<!DOCTYPE svg PUBLIC "-//W3C//DTD SVG 1.1//EN" "http://www.w3.org/Graphics/SVG/1.1/DTD/svg11.dtd">
<!-- Creator: CorelDRAW 2019 -->
<svg xmlns="http://www.w3.org/2000/svg" xml:space="preserve" width="15mm" height="15mm" version="1.1" style="shape-rendering:geometricPrecision; text-rendering:geometricPrecision; image-rendering:optimizeQuality; fill-rule:evenodd; clip-rule:evenodd"
viewBox="0 0 1500 1500"
 xmlns:xlink="http://www.w3.org/1999/xlink">
 <defs>
  <style type="text/css">
   <![CDATA[
    .str0 {stroke:black;stroke-width:20;stroke-miterlimit:22.9256}
    .fil0 {fill:black}
    .fil3 {fill:#D7D7D7}
    .fil2 {fill:red}
    .fil1 {fill:white}
   ]]>
  </style>
 </defs>
 <g id="Слой_x0020_1">
  <metadata id="CorelCorpID_0Corel-Layer"/>
  <rect class="fil0 str0" x="-3.53" y="3.53" width="1500" height="1500"/>
  <g id="_1366631584">
   <path class="fil1" d="M1021.57 1293.3c-4.17,23.98 -24.5,42.66 -46.73,48.66 -18.65,5.03 -252.32,2.32 -282.51,2.32 -30.23,0 -263.64,2.81 -282.35,-2.47 -21.8,-6.15 -42.23,-25.05 -46.25,-48.58l657.84 0.07zm-659.91 -720.06c29.27,4.59 42.9,10.52 76.59,6.76 45.08,-5.02 80,-24.49 110.24,-54.05 17.55,-17.16 26.45,-38.72 36.35,-45.88 26,-18.82 63.66,14.64 140.08,-17.18 20.21,-8.42 33.59,-23.46 60.32,-21.84 23.45,1.42 42.95,15.58 48.04,33.9 4.98,17.88 1.57,134.98 1.53,162.66 -0.04,28.75 5.27,48.47 21.15,61.58 27.19,22.46 92.84,27.56 117.9,-16 12.08,-20.99 8.61,-47.8 8.61,-74.18 0,-53.86 -1.68,-110.44 0.15,-163.96 13.51,-0.16 24.95,2.53 41.23,1.76l-0.21 813.3 -662.13 -0.33 0.15 -686.54zm695.55 64.2l117.76 -0.03 0 426.41 -117.98 -0.5 0.22 -425.88zm161.04 514.49c-5.71,3.77 -12.09,2.61 -20.04,2.59 -36.89,-0.11 -114.31,1.68 -141.52,-0.39l0.27 -57.51 135.44 -0.1c15.42,-1.92 15.81,-10.27 15.73,-26.26 -0.29,-55 1.8,-441.94 -0.57,-453.08 -2.74,-12.91 -12.55,-13.01 -27.19,-12.93 -29.97,0.15 -101.44,1.54 -123.43,-0.44l0.75 -56.55c33.91,-2.09 73.77,-0.26 108.34,-0.26 37.76,0 67.88,-3.76 86.6,20.08 18.22,23.19 12.74,60.66 12.74,95.56l0.03 430.88c-0.12,38.1 -28.41,61.04 -47.15,58.41zm-591.3 -1024.13c73.76,-11.69 132.58,30.78 157.56,70.85 7.49,12.02 18.23,27.59 33.89,9.11 37.44,-44.19 91.03,-25.84 107.57,12.08 5.75,13.17 4.52,36.41 26.27,30.53 5.33,-1.44 11.69,-7.27 18.17,-10.38 38.95,-18.69 81.62,-6.43 105.6,17.51 43.27,43.21 32.4,123.31 -29.83,149.51 -54.47,22.94 -78.96,-17.15 -93.73,4.47 -6.12,8.97 -3.17,202.19 -3.08,227.93 0.08,20.61 -2.76,32.03 -17.47,39.34 -11.16,5.55 -39.14,4.54 -48.87,-1.23 -14.96,-8.88 -15.13,-21.95 -15.11,-43.48 0.04,-34.17 2.55,-150.72 -3.02,-168.99 -8.42,-27.64 -31.82,-47.92 -61.5,-54.71 -45.46,-10.39 -59.23,8.24 -89.99,21.31 -74.2,31.55 -100.65,-10.49 -147.2,20.83 -14.04,9.45 -15.63,16.15 -25.91,31.31 -27.29,40.25 -88.33,78.31 -160.98,59.36 -13.31,-3.47 -34.4,-16.97 -45.1,-7.99 -9.26,7.77 -5.87,35.49 -5.87,50.61 0,38.13 0,76.27 0,114.4 0,16.89 3.29,41.15 -5.4,54.27 -10.46,15.79 -55.49,28.1 -55.31,-31.01l0.01 -287.82c0,-38.02 -1.18,-70.43 14.21,-101.16 13.26,-26.48 30.83,-46.53 53.23,-61.22 44.9,-29.45 87.09,-30.11 136.93,-14.2 22.42,7.16 22.45,-10.84 28.06,-26.4 19.04,-52.85 63.12,-94.72 126.87,-104.83zm-159.86 94.33c-99.59,-24.54 -188.09,26.31 -220.53,110.86 -13.82,36.04 -12.02,63.51 -12.02,104.41 0,76.87 0,153.73 0,230.6 0,46.6 -12.15,109.64 42.65,129.1 21.02,7.46 32.19,2.33 51.18,-3.33l-0.02 469.49c-0.03,33.9 2.78,51.23 19.74,74.28 33.57,45.62 77.01,39.86 147.6,39.86 125.13,0 250.26,0 375.39,0 66.86,0 117.69,10.03 157.45,-29.99 38.26,-38.52 28.47,-96.17 28.47,-159.53 16.52,-1.78 117.75,-0.55 143.02,-0.53 118.87,0.09 98.46,-111.2 98.46,-190.44l0 -289.59c0,-35.71 4.58,-109.82 -6.62,-138.37 -6.64,-16.94 -19.52,-31.12 -31.96,-39.5 -17.96,-12.1 -32.16,-15.65 -58.12,-15.57 -46.26,0.15 -98.91,2.25 -144.45,-0.24l-0.36 -74.98c29.14,-15.96 48.64,-26.71 65.64,-60.77 30.84,-61.78 6,-137.18 -59.07,-168.71 -36.32,-17.59 -68.68,-13.47 -104.87,-0.6 -2.95,-2.95 -34.63,-75.34 -112.21,-56.78 -21.13,5.05 -25.53,12.16 -39.73,19.2 -7.14,-6.52 -19.44,-23.25 -33.55,-34.35 -44.78,-35.23 -97.28,-51.52 -157.88,-40.82 -53.57,9.45 -96.22,40.72 -124.15,81.4 -10.94,15.93 -21.03,41.91 -24.06,44.9z"/>
   <path class="fil2" d="M408.21 824.81c-14,5.8 -10.86,17.36 -10.84,34.46l0 228.81c0,20.51 -8.49,79.21 23.68,64.93 11.63,-5.16 9.47,-20.64 9.45,-34.54l0.07 -273.58c-0.16,-13.08 -7.88,-26.07 -22.36,-20.08z"/>
   <path class="fil1" d="M637.17 644.46c40.82,-16.15 63.06,46.23 23.3,61.29 -39.94,15.13 -65.73,-44.5 -23.3,-61.29zm-0.57 -34.54c-86.95,16.59 -61.76,146.14 24.15,130.21 32.11,-5.95 60,-36.53 52.87,-77.28 -5.62,-32.1 -37.21,-60.52 -77.02,-52.93z"/>
   <path class="fil1" d="M775.15 1087.86c41.34,-12.56 58.42,50.07 19.21,62.84 -41.29,13.44 -63.85,-49.27 -19.21,-62.84zm-6.36 -32.86c-85.43,21 -55.57,148.03 30.11,128.89 31.27,-6.98 57.79,-39.4 49.62,-78.59 -6.64,-31.86 -40.03,-60.06 -79.73,-50.3z"/>
   <path class="fil1" d="M800.22 843.18c-6.66,-32.64 41.25,-40.37 47.12,-10.15 6.15,31.64 -41.1,39.65 -47.12,10.15zm14.78 -61.87c-75,12.4 -57.11,124.95 18.04,113.05 28.04,-4.44 52.56,-30.86 47.26,-65.48 -4.33,-28.28 -31.09,-53.23 -65.3,-47.57z"/>
   <path class="fil1" d="M620.5 906.75c23.29,-8.15 32.04,26.83 11.64,33.51 -23.35,7.65 -32.74,-26.12 -11.64,-33.51zm-9.72 -31.46c-65.79,22.9 -30.85,117.12 31.62,96.62 22.1,-7.26 42.67,-32.91 32.45,-64.91 -7.03,-22.04 -33.6,-42.31 -64.07,-31.71z"/>
   <path class="fil2" d="M430.48 782.4c0.01,-14.02 2.24,-35.24 -18.45,-33.26 -13.14,1.26 -14.72,12.47 -14.73,26.09 0,13.8 -0.27,25.67 13.18,28.12 14.13,2.59 19.99,-8.08 20,-20.95z"/>
   <path class="fil3" d="M1218.25 1151.93l-159 0.59 -0.03 -54.03c21.82,0.86 45.45,0.05 67.48,0.05 8.18,0 63.19,2.2 65.7,-2.02l-135.44 0.1 -0.27 57.51c27.21,2.07 104.63,0.28 141.52,0.39 7.95,0.02 14.33,1.18 20.04,-2.59z"/>
   <polygon class="fil1 str0" points="298.57,830.07 271.76,837.1 244.5,833.58 215.54,813.83 200.09,774.96 198.57,728.54 202.93,375.94 223.38,319.02 261.97,269.66 316.73,234.62 383.77,219.83 428.28,222.68 445.12,226.18 470.53,178.75 497.39,146.72 527.41,122.41 570.35,100.98 619.62,90.3 680.44,93.49 733.42,112.87 777.32,143.64 803.92,172.16 824.03,160.14 859.94,149.37 892.54,150.94 931.62,170.66 957.32,200.24 964.44,211.86 998.04,202.48 1034.19,200.62 1075.22,212.5 1108.34,234.84 1135.79,269.95 1151.52,332.19 1143.76,376.39 1120.93,416.82 1093.31,440.51 1068.28,454.92 1033.29,463.53 989.72,462.05 989.02,492.38 988.88,539.48 989.45,605.54 989.88,674.83 986.21,699.67 980.48,713.25 958.43,736.04 944.71,742.69 922.35,747.6 886.32,744.68 865.13,736.38 847.3,721.17 838.65,704.44 834.13,680.45 833.68,654.89 834.8,568.34 832.96,498.79 822.87,476.76 812.29,467.58 791.21,458.82 765.84,458.33 743.95,466.47 726.16,476.41 708.48,484.06 677.47,492.74 650.88,495.7 626.89,495.04 607.2,493.06 580.28,493.6 569.51,498.67 546.51,528.86 534.13,544.07 520.81,556.67 497.27,574.66 467.2,590.76 446.83,597.94 414.65,604.24 381.35,604.99 359.4,601.77 333.74,597.09 333.7,787.77 333.69,815.1 319.15,825.73 "/>
  </g>
 </g>
</svg>
