<?xml version="1.0" encoding="UTF-8"?>
<!DOCTYPE svg PUBLIC "-//W3C//DTD SVG 1.1//EN" "http://www.w3.org/Graphics/SVG/1.1/DTD/svg11.dtd">
<!-- Creator: CorelDRAW 2019 -->
<svg xmlns="http://www.w3.org/2000/svg" xml:space="preserve" width="15mm" height="15mm" version="1.1" style="shape-rendering:geometricPrecision; text-rendering:geometricPrecision; image-rendering:optimizeQuality; fill-rule:evenodd; clip-rule:evenodd"
viewBox="0 0 1500 1500"
 xmlns:xlink="http://www.w3.org/1999/xlink">
 <defs>
  <style type="text/css">
   <![CDATA[
    .str0 {stroke:black;stroke-width:20;stroke-miterlimit:22.9256}
    .fil3 {fill:none}
    .fil0 {fill:black}
    .fil1 {fill:red}
    .fil2 {fill:white}
   ]]>
  </style>
 </defs>
 <g id="Слой_x0020_1">
  <metadata id="CorelCorpID_0Corel-Layer"/>
  <rect class="fil0 str0" x="-3.53" y="3.53" width="1500" height="1500"/>
  <g id="_1134013088">
   <g>
    <path class="fil1" d="M910.71 1090.37c9.06,-0.97 18.12,0.98 26.07,3.45 8.37,2.6 14.95,6.77 23.45,9.17 2.58,-3.91 -1.84,-10.81 -0.94,-12.44 -5.85,-1.7 -6.29,-3.14 -14.75,-6.39 -26.82,-10.28 -54.26,-6.4 -75.16,10.78 -40.77,33.45 -41.79,101.28 -18.18,145.22 11.18,20.64 22.22,34.16 41.33,47.58 17.1,11.97 41.27,18.4 61.92,13.66 17.15,-3.6 15.4,-7.68 33.62,-1.56 12.44,4.19 29.91,3.7 41.84,0.25 59.68,-17.21 96.12,-92.81 79.74,-155.95 -7,-26.71 -24.27,-51.86 -51.18,-61.36 -7.52,-2.65 -18.61,-4.92 -27.98,-4.21 -25.26,1.9 -32.3,10.04 -44.49,13.1l-0.81 9.7c0.55,0.8 0.85,1.55 0.93,2.25 9.57,-1.77 12.47,-4.26 20.47,-7.64 52.7,-22.32 92.67,21.84 95.02,71.84 1.79,38.35 -13.35,79.96 -43.91,104.55 -18.1,14.57 -43.53,24.33 -67.71,15.81 -23.63,-8.3 -27.64,2.71 -48.46,3.05 -35.04,0.6 -61.52,-26.05 -73.7,-45.57 -15.99,-25.63 -25.84,-59.89 -17.64,-96.39 6.84,-30.69 27.69,-55.41 60.52,-58.9z"/>
    <path class="fil1" d="M909.91 1103.1c-9.02,1.14 -14.5,3.3 -21.46,7.89 -1.15,0.76 -1.87,1.25 -2.86,2.03 -1.16,0.91 -1.47,1.3 -2.58,2.28 -5.94,5.25 -12.12,13.16 -16.05,22.98 -4.99,12.45 -7.89,27.54 -7.11,41.57 0.19,3.42 -0.11,5.56 2.16,7.5 3.33,2.83 10.25,2.23 9.63,-6.49 -1.14,-15.97 2.34,-33.2 10.65,-46.76 4.59,-7.49 12.58,-14.9 21.28,-17.73 14.72,-4.78 21.2,1.89 24.53,-3.97 1.43,-2.51 0.68,-5.7 -1.01,-7.39 -2.82,-2.81 -12.69,-2.48 -17.18,-1.91z"/>
    <path class="fil1" d="M879.65 1239.86c0.51,3.6 11.75,15.88 15.14,18.98l9.41 7.48c5.94,3.93 14.34,-4.23 5.32,-10.57 -4.33,-3.05 -7.61,-6.32 -11.29,-10.1 -2.17,-2.23 -8.42,-10.91 -9.42,-11.58 -4.51,-3.01 -9.89,0.71 -9.16,5.79z"/>
   </g>
   <path class="fil2" d="M605.58 589.16l110.6 0c0,19.93 2.37,30.61 2.27,49.65 -0.58,111.71 -8.13,50.39 99.98,141.54 38.73,32.65 27.13,45.57 26.35,77.36 -1.09,44.3 -11.89,179.26 -15.62,225.9 -1.48,18.49 -1.06,33.27 -2.51,51.67 -1.07,13.7 -3.7,35.92 -4.39,49.77 -0.89,17.95 -0.69,33.81 -2.58,51.59 -1.9,17.84 0.89,34.19 -19.99,34.19l-277.63 0c-23.01,0 -17.39,-23.31 -18.68,-33.23l-20.31 -302.47c-1.53,-11.23 -3.96,-37.39 -3.92,-50.25 0.17,-62.95 -27.3,-74.62 67.73,-137.72 11.01,-7.31 21.55,-13.62 33.44,-20.73 30.22,-18.06 23.33,-22.15 22.97,-85.38 -0.11,-18.55 2.29,-31.34 2.29,-51.89zm0 -79c0,-38.1 2.25,-68.13 2.25,-106.09l106.09 0c0,56.09 2.26,104.46 2.26,160.26l-110.6 0 0 -54.17zm-4.52 -214.43l119.63 0 0 83.52 -119.63 0 0 -83.52zm-24.83 108.34l6.77 0c0,24.83 -0.02,49.66 0.01,74.49 0.03,25.71 -2.26,45.05 -2.26,72.23 0,52.2 -2.26,98.74 -2.26,148.98l-55.54 34.74c-12.89,8.51 -41.04,31.26 -50.26,42.28 -19.45,23.23 -20.6,21.65 -20.6,53.89l7.1 128.33c4.56,41.16 17.3,299.12 24.54,314.04 7.63,15.7 24.02,22.61 47.36,22.61l264.09 0c41.21,0 46.11,-24.09 47.44,-51.87 1.4,-29.09 6.45,-62.46 6.69,-92.63l9.4 -139.57c5.25,-47.93 5.59,-94.64 10.62,-140.61l2.56 -46.98c-3.17,-39.22 -36.44,-63.1 -66.04,-85.24 -9.67,-7.23 -53.08,-36.78 -62.59,-38.99 0,-99.66 -4.51,-196.28 -4.51,-295.7l6.77 0 0 -133.17 -169.29 0 0 133.17z"/>
   <path class="fil2" d="M533.35 923.23l255.06 0c0,30.62 -11.23,150.07 -13.54,196.37 -1.1,22.03 -4.52,43.18 -4.52,67.72l-218.95 0 -8.41 -131.54c-1.41,-10.45 -1.09,-23.01 -2.25,-31.6 -2.92,-21.55 -4.01,-93.39 -7.39,-100.95zm-4.52 288.91l264.09 0c0,-35.58 9.1,-130.57 11.29,-176.05 0.75,-15.52 4.45,-35.49 4.51,-58.69 0.07,-23.38 4.52,-53.08 4.52,-79l-304.72 0c0,32.32 10.23,154.35 13.42,194.24 0.52,6.54 -0.28,13.52 0.24,20.07 0.69,8.63 2.08,9.35 2.18,20.4 0.21,26.87 4.47,50.35 4.47,79.03z"/>
   <path class="fil1" d="M573.98 1142.17c11.79,0 31.15,-3.73 43.87,-5.78l42.47 -6.59c8.39,-0.4 30.18,4.37 41.65,6.26 10.26,1.69 32.28,6.11 43.55,6.11l0 -176.06 -63.2 13.55c1.69,7.25 4.33,16.4 4.51,24.82 9.24,-2.15 24.26,-5.97 33.86,-6.77l0 117.38c-6.84,-3.29 -53.09,-9.93 -60.63,-9.8 -8.05,0.13 -57.17,7.83 -61.26,9.8l0 -117.38c10.44,0.24 22.16,4.57 31.61,6.77 0.81,-9.73 4.28,-14.35 4.51,-24.82 -7.61,-0.64 -22.78,-4.64 -29.82,-6.3 -10.8,-2.56 -20.59,-4.79 -31.12,-7.25l0 176.06z"/>
  </g>
  <g id="_1134010232">
   <path class="fil2" d="M977.76 1076.35l-12.14 0c-2.15,-7.65 -5,-15.44 -6.45,-18.42 -6.72,-13.75 -12.41,-22.05 -22.51,-33.01 -6.46,-7.01 0.12,-12.6 5.17,-10.84 1.6,0.56 4.44,3.76 5.91,5.37l9.76 12.37c2.82,4.38 5.01,7.11 7.54,11.98l1.25 1.71c2.64,-7.42 1.2,-7.39 6.09,-17.89 3.04,-6.52 5.72,-9.54 9.4,-14.6l4.19 -4.82c1.63,-1.79 1.86,-2.48 4.48,-4.52 3.06,-2.39 5.13,-4.74 9.96,-8.04 2.37,-1.62 5.05,-3.18 7.68,-4.7 17.73,-10.2 46.92,-17.83 67.76,-9.58 3.71,1.47 5.1,2.37 5.39,7.01 0.84,13.41 -4.73,27.86 -10.35,37.22 -3.7,6.18 -10.5,15.93 -15.51,20.51 -2.03,1.87 -4.01,4.33 -6.3,6.1 -7.29,5.64 -12.89,10.24 -21.74,14.26 -12.3,5.58 -26.7,8.59 -40.43,6.84 -3.36,-0.42 -7.59,-1.61 -10.43,-1.81 0.53,1.66 0.94,3.27 1.28,4.86zm-0.81 -17.3c-1.52,-20.88 13.25,-41.57 29.04,-52.95 11.49,-8.27 29.65,-15.57 45.06,-16.36 10.71,-0.56 9.89,0.25 18.61,1.7 -0.39,11.76 -5.49,23.4 -10.7,31.24 -6.56,9.9 -6.42,9.15 -14.12,17.39 -11.69,12.53 -31.47,22.04 -50.42,21.97 -4.48,-0.01 -14.13,-1.03 -17.47,-2.99z"/>
  </g>
  <g>
   <path class="fil2" d="M959.17 1102.68c9.54,2.89 18.03,2.56 27.73,0.8l0 -12.05c-1.7,0.47 -3.49,0.84 -5.45,1.09l-3.29 7.16c-11.04,5.39 -12.22,0.11 -12.23,-7.55 -2.93,-0.59 -5.08,-1.12 -6.76,-1.61l0 12.16zm19.27 -22.6l-0.29 -1.7 0.29 1.7zm-2.9 -9.11l-3.8 -4.49 3.8 4.49z"/>
  </g>
  <g>
   <path class="fil2" d="M964.64 1094.79c-3.27,-34 -2.74,-16.38 -1.09,-52.86 16.18,33.39 9.35,16.07 20.4,51.99 0.24,5.34 -3.89,9.85 -9.22,10.09 -5.33,0.24 -9.85,-3.89 -10.09,-9.22z"/>
  </g>
  <path class="fil3" d="M974.3 1094.36c-0.52,-11.46 -10.2,-40.06 -10.75,-52.43"/>
 </g>
</svg>
