<?xml version="1.0" encoding="UTF-8"?>
<!DOCTYPE svg PUBLIC "-//W3C//DTD SVG 1.1//EN" "http://www.w3.org/Graphics/SVG/1.1/DTD/svg11.dtd">
<!-- Creator: CorelDRAW 2019 -->
<svg xmlns="http://www.w3.org/2000/svg" xml:space="preserve" width="15mm" height="15mm" version="1.1" style="shape-rendering:geometricPrecision; text-rendering:geometricPrecision; image-rendering:optimizeQuality; fill-rule:evenodd; clip-rule:evenodd"
viewBox="0 0 1500 1500"
 xmlns:xlink="http://www.w3.org/1999/xlink">
 <defs>
  <style type="text/css">
   <![CDATA[
    .str0 {stroke:black;stroke-width:20;stroke-miterlimit:22.9256}
    .fil3 {fill:none}
    .fil0 {fill:black}
    .fil2 {fill:red}
    .fil1 {fill:white}
   ]]>
  </style>
 </defs>
 <g id="Слой_x0020_1">
  <metadata id="CorelCorpID_0Corel-Layer"/>
  <rect class="fil0 str0" x="-3.53" y="3.53" width="1500" height="1500"/>
  <ellipse class="fil1" cx="307.05" cy="256.34" rx="209.46" ry="227.1"/>
  <rect class="fil0 str0" x="-3.53" y="3.53" width="1500" height="1500"/>
  <g id="_1361987360">
   <path class="fil1" d="M473.78 1401.92c-7.65,-32.98 -10.68,-85.23 -14.84,-120.59 -4.71,-40.14 -14.71,-93.76 30.1,-98.83l405.4 -0.29c152.6,0 174.05,-22.95 159.62,99.28 -3.94,33.4 -7.02,90.37 -14.91,120.57l-565.37 -0.14zm-104.17 -747.62l774.64 0.04 -56.06 482.98c-23.8,4.43 -653.96,2.18 -663.28,-0.45l-55.3 -482.57zm11.15 -44.21c-14.37,-169.84 -52.74,-210.85 67.15,-210.82l619.73 0c120.23,-0.06 76.18,50.06 64.75,211.59l-751.63 -0.77zm-112.21 -343.43c10.17,-6.77 14.33,-11.31 16.52,-21.65 -21.54,-12.1 -34.73,16.71 -35.28,24.29 -0.92,12.64 -0.25,52.48 1.66,64.49 9.16,-4.81 17.65,-13.19 23.27,-21.8 1.49,1.03 2.97,1.95 6.15,3.38 -5.06,20.84 -55.91,38.32 -20.26,73.69 19.12,18.96 20.27,6.46 53.72,11.19 4.05,46.83 10.57,94.41 16.29,141.33 1.8,14.82 8.55,55.79 7.93,68.98 -1.26,26.74 -19.22,-4.28 -12.23,56.46l48.56 417.1c2.61,22.73 4.47,48.28 8.01,70.27 2.67,16.59 7.12,12.78 16.62,21.39 7.92,7.17 6.81,15.25 8.32,29.52 4.79,45.41 10.75,91.62 16.02,137.96 11.81,103.91 3.34,100.13 53.83,100.13l568.31 0c34.78,0 32.74,-9.37 36.34,-41.13l23.85 -206.53c4.33,-39.55 20.05,-3.92 25.22,-53.13l55.84 -480.23c6.75,-57.73 -16.16,-24.9 -12.42,-57.59 2.63,-22.93 5.52,-45.45 8.21,-67.85 4.47,-37.27 15.88,-103.06 15.03,-137.52 15.87,-1.69 38.05,4.18 49,-4.71 18.84,-15.3 15.94,-22.26 15.91,-36.03 -0.05,-27.86 -0.07,-56.16 -0.56,-84.12 -0.63,-35.87 -36.09,-32.39 -47.87,-33.11 -29.69,-62.05 -25.58,-150 -68.42,-150.02l-714.44 -0.01c-19.54,0 -74.03,-5.4 -85.51,5.86 -7.51,7.36 -21.03,57.41 -23.64,71.78 9.23,-0.35 11.68,-1.84 18.57,4.27 7.69,6.82 10.25,11.3 12.97,21.55 5.99,-5.93 1.6,0.43 5.82,-8.06l15.92 -54.08 759.49 0.44c6.07,9.49 23.84,66.6 23.64,79.43 -0.44,28.23 -43.36,28.67 -69.65,28.67l-663.03 0.02c-22.42,0 -56.06,-0.44 -67.26,-15.58 -9.77,-13.2 2.46,-10.77 -11.37,-11.42 -10.1,-0.48 -3.43,-1.3 -8.11,3.55 -2.22,2.3 -2.5,2.93 -3.32,6.17 -2.71,10.73 7.17,18.17 15.98,24.57l-9.81 7.91c-7.9,-11.63 -24.18,-29.6 -37.62,-32.97l-4.79 18.78c10.15,7.85 33.36,8.79 21.34,40.99l900.63 -0.17 -0.79 73.63c-170.48,3.15 -912.56,2.05 -929.19,-0.93l0.21 -70.22c5.44,-3.07 27.13,0.53 16.95,-26.29 -25.81,-9.74 -22.18,11.32 -37.1,15.87 -3.7,-8.78 -1.47,-2.2 -3.46,-8.52z"/>
   <path class="fil2" d="M746.84 1052.61c6.5,-13.21 14.38,-20.41 20.61,-36.07 20.37,-51.15 10.43,-90.35 3.83,-139.59 -4.08,-30.4 -3.28,-68.3 9.56,-93.24 39.47,-76.7 120.58,46.51 78.26,167.48 -16.52,47.21 -56.92,97.44 -112.26,101.42zm4.52 -287.23c-2.29,4.15 -1.97,3.29 -4,8.66 -19.91,52.64 -15.72,78.43 -6.61,136.06 6.7,42.39 0.05,122.76 -35.44,122.18 -14.67,-0.24 -28.01,-9.78 -33.95,-17.52 -70.25,-91.81 -8.04,-272.6 95.85,-274.15l-15.85 24.77zm154.57 137.24c13.37,-100.2 -47.5,-201.98 -141.5,-198.09 -49.58,2.05 -89.74,36.98 -109.98,63.63 -24.56,32.33 -42.09,72.37 -47.32,122.92 -9.96,96.2 42.6,201.54 140.91,197.45 90.94,-3.78 146.22,-98.38 157.89,-185.91z"/>
   <path class="fil1" d="M310.89 207.12l7.86 10.01c16.57,-2.74 26.63,-13.65 20.14,-30.91 -11.05,-4.47 -18.95,-4.32 -24.58,8.66 -2.54,5.84 -2.44,6.74 -3.42,12.24z"/>
  </g>
  <g id="_1361986400">
   <path class="fil1" d="M364.44 174.45c-5.56,25.42 -9.84,41.05 -12.64,66.73l-0.16 -3.15 -40.78 0c3.01,-31.51 7.69,-53.35 14.35,-83.07l39.23 19.49z"/>
  </g>
  <path class="fil3" d="M344.82 164.71c-3.29,20.33 -11.2,42.82 -12.07,61.96 -0.06,1.31 -1.5,11.33 -1.5,11.36"/>
  <g id="_1361985656">
   <path class="fil1" d="M274.55 250.53c51.39,-1.83 81.55,-7.11 134.32,-5.43l-45.69 30.46 15.47 1.93c-28.67,2.65 -78.76,5.77 -110.27,6.89l6.17 -33.85z"/>
  </g>
  <path class="fil3" d="M271.47 267.46c11.03,-0.5 10.76,-0.03 24.8,-1.31 25.47,-2.34 44.46,-1.91 73.24,-4.55 2.11,-0.19 15.55,-1.51 16.52,-1.27"/>
  <g id="_1362005720">
   <path class="fil1" d="M318.21 190.01c18.69,11.53 20.68,15.24 33.43,32.98l-14.6 -9.7 -20.75 72.76c-32.06,-26.59 -11.27,-8.07 -28.62,-27.92l0.03 -0.03 4.37 2.57 26.14 -70.66z"/>
  </g>
  <path class="fil3" d="M305.14 225.34c8.42,3.71 20.25,23.89 21.52,24.33"/>
  <g id="_1362003800">
   <path class="fil1" d="M360.25 181.57c-11.93,-7.49 -17.7,-7.71 -31.19,-4.12l11.36 29.94 19.83 -25.82zm-19.83 25.82l15.65 41.31c-18.27,4.84 -26.06,3.42 -42.24,-6.69l26.59 -34.62z"/>
  </g>
  <path class="fil3" d="M337.04 211.79c1.36,1.05 3.74,1.96 5.53,1.28"/>
  <g id="_1362001688">
   <path class="fil1" d="M280.67 299.52c0.14,47.27 0.07,23.57 0.21,71.11l-29.07 0c-0.14,-46.95 -0.07,-23.25 -0.21,-71.11l29.07 0z"/>
  </g>
  <path class="fil3" d="M266.14 299.52c0,23.65 0.2,48.1 0.2,71.11"/>
  <g id="_1367796336">
   <path class="fil1" d="M333.41 272.22c1.83,-10.67 0.41,-12.44 -2.67,-21.23l-25.63 14.09 28.3 7.14zm-2.67 -21.23l-0.2 -0.59 0.31 0.53 -0.11 0.06zm-25.63 14.09l-41.04 22.55c-6.88,-12.78 -7.25,-20.06 -4.55,-34.05l45.59 11.5z"/>
  </g>
  <path class="fil3" d="M296.47 262.9c-0.87,3.44 -0.52,3.63 0.99,6.38"/>
  <g id="_1367800008">
   <path class="fil1" d="M349.42 242.96c6.66,17.38 3.44,7.53 8.66,29.62l-74.01 -7.92c-11.87,-9.13 -4.58,-2.4 -10.86,-21.93l76.21 0.23z"/>
  </g>
  <path class="fil3" d="M311.31 242.84c-0.09,5.91 10.38,24.69 9.76,25.78"/>
 </g>
</svg>
