<?xml version="1.0" encoding="UTF-8"?>
<!DOCTYPE svg PUBLIC "-//W3C//DTD SVG 1.1//EN" "http://www.w3.org/Graphics/SVG/1.1/DTD/svg11.dtd">
<!-- Creator: CorelDRAW 2019 -->
<svg xmlns="http://www.w3.org/2000/svg" xml:space="preserve" width="15mm" height="15mm" version="1.1" style="shape-rendering:geometricPrecision; text-rendering:geometricPrecision; image-rendering:optimizeQuality; fill-rule:evenodd; clip-rule:evenodd"
viewBox="0 0 1500 1500"
 xmlns:xlink="http://www.w3.org/1999/xlink">
 <defs>
  <style type="text/css">
   <![CDATA[
    .str0 {stroke:black;stroke-width:20;stroke-miterlimit:22.9256}
    .str1 {stroke:white;stroke-width:20;stroke-miterlimit:22.9256}
    .fil0 {fill:black}
    .fil1 {fill:red}
    .fil2 {fill:white}
   ]]>
  </style>
 </defs>
 <g id="Слой_x0020_1">
  <metadata id="CorelCorpID_0Corel-Layer"/>
  <rect class="fil0 str0" x="-3.53" y="3.53" width="1500" height="1500"/>
  <g id="_1919034360">
   <rect class="fil1 str1" x="380.43" y="660.25" width="280.3" height="459.27"/>
   <path class="fil2" d="M391.18 745.26c61.48,-31.8 183.54,-34.64 244.34,0 -6.02,61.45 -17.01,103.69 -15.79,170.52 1.05,57.53 13.21,105.16 16.59,157.78l-245.84 -0.7c0.52,-51.53 9.83,-107.01 10.13,-162.77 0.3,-57.18 -9.06,-111.63 -9.43,-164.83zm-29.82 330.66c-15.53,122.83 -10.02,107.65 -49.01,108.08 35.96,-327.33 32.95,-210.53 -8.76,-530.27l27.55 -8.69c20.79,43.9 35.49,215.79 37.05,276.42 1.32,51.52 -0.48,104.19 -6.83,154.46zm-73.29 -430.93c10.42,90.99 32.92,161.77 35.32,265.1 2.55,109.51 -15.04,183.99 -27.49,286.13l435.06 -0.04c-10.89,-99.79 -29.44,-172.76 -27.39,-280.41 1.96,-102.63 19.6,-173.7 35.35,-267.13 -27.03,-35.7 -93.82,-39.26 -168.57,-131.64 -178.76,-2.27 -64.68,-13.12 -188.1,68.71 -31.17,20.66 -61.73,37.88 -94.18,59.28z"/>
   <path class="fil2" d="M428.41 529.44c14.34,-10.45 16.51,-17.69 21.1,-42.02l127.75 0.07c3.84,17.15 6.55,31.08 21.39,41.8 -18.09,-64.76 -21.13,-54.5 -18.67,-147.78l35.24 -15.05c-11.12,-19.99 -1.21,-5.37 -20.75,-19.05l9.7 -77.66c-58.19,-40.92 -124.62,-39.58 -179.86,-0.48l9.11 78.06c-20.26,13.55 -10.66,-0.24 -20.84,17.13l35.19 15.32c0.95,73.63 -2.45,90.25 -19.36,149.66z"/>
   <path class="fil2" d="M377.08 1269.36c-44.14,0.28 -84.53,7.02 -84.68,-45.33l442.32 -0.06c-0.78,54.3 -44.69,45.56 -90.48,45.36l-267.16 0.03zm352.71 -649.28l23.51 22.88c-55.9,295.3 -42.55,278.84 -7.9,564.32l-463.15 0.24c9.84,-104.7 29.62,-176.57 28.27,-291.75 -1.76,-150.64 -28.38,-189.03 -36.8,-279.03 28.95,-11.72 55.54,-32.52 82.21,-48.88 24.88,-15.26 58.95,-35.01 72.48,-58.42l-80.73 55.66c-27.22,16.72 -59.85,36.06 -82.37,52.53 31.28,147.35 51.22,267.46 30.66,429.84 -6.54,51.71 -41.76,165.93 -4.65,201.23 30.41,28.92 171.24,17.07 222.19,17.07 52.36,0 190.52,14.54 221.94,-17.48 35.14,-35.81 2.6,-146.21 -4.37,-201 -20.85,-163.8 -0.43,-280.72 30.79,-429.7l-32.08 -17.51z"/>
   <path class="fil2" d="M729.79 620.08c-0.87,-1.04 -2.12,-4.12 -2.57,-3.16 -0.45,0.95 -2.07,-2.49 -2.71,-3.01l-24.52 -15.48c-12.9,-8.08 -20.64,-13.06 -34.87,-21.94l-66.47 -47.2c12.29,21.44 35.44,35.17 58.3,49.88 18.31,11.79 53.51,36.36 72.84,40.91z"/>
  </g>
  <g id="_345895960">
   <path class="fil2" d="M870.95 1049.38c0,26.04 75.66,84.54 120.3,84.54l19.51 0c39.38,0 120.3,-53.77 120.3,-87.79 0,-12.43 -4.12,-21.94 -6.25,-32.76 -2.49,-12.6 -0.77,-29.01 -13.26,-29.01l-221.09 0c-12.13,0 -10.77,15.79 -13.67,28.59 -2.35,10.37 -5.84,22.51 -5.84,36.43z"/>
   <path class="fil2" d="M851.45 1046.13c0,-44.78 17.17,-91.29 27.94,-134.62 4.02,-16.19 10.72,-28.37 11.07,-44.2l221.09 0c0.27,12.27 16.86,63.98 21.48,82.56 26.05,104.85 37.8,135.62 -70.2,184.1 -26.72,12 -55.32,19.3 -55.32,51.97 0,26.2 13.35,37.04 31.38,46.64l43.08 15.45c1.35,0.43 6.51,1.97 7.45,2.31l6.92 2.83c0.49,0.21 1.52,0.61 2.2,1.04 -36.96,0 -61.34,3.26 -97.54,3.26 -36.19,0 -60.57,-3.26 -97.53,-3.26l6.74 -3.01c0.06,-0.02 6.64,-2.19 7.34,-2.41 7.34,-2.35 8.16,-2.55 14.77,-4.73 24.75,-8.18 62.18,-18.75 62.18,-54.87 0,-24.22 -10.95,-35.08 -28.33,-43.2 -38.01,-17.77 -114.72,-40.48 -114.72,-99.86zm-16.26 -6.5c0,99.46 143.06,108.87 143.06,139.8 0,39.6 -15.06,39.11 -75.29,58.02 -41.62,13.07 -19.58,33.02 7.01,33.02l182.07 0c26.59,0 48.63,-19.95 7.01,-33.02 -60.23,-18.91 -75.29,-18.42 -75.29,-58.02 0,-25.54 87.56,-35.08 124.13,-83.95 33,-44.08 13.8,-101.4 -2.68,-157.79l-20.82 -73.47c-3.83,-9.39 -5.7,-13.17 -19.34,-13.17l-208.09 0c-19.19,0 -19.42,11.68 -26.02,35.75 -8.42,30.72 -35.75,125.5 -35.75,152.83z"/>
  </g>
 </g>
</svg>
