<?xml version="1.0" encoding="UTF-8"?>
<!DOCTYPE svg PUBLIC "-//W3C//DTD SVG 1.1//EN" "http://www.w3.org/Graphics/SVG/1.1/DTD/svg11.dtd">
<!-- Creator: CorelDRAW 2019 -->
<svg xmlns="http://www.w3.org/2000/svg" xml:space="preserve" width="15mm" height="15mm" version="1.1" style="shape-rendering:geometricPrecision; text-rendering:geometricPrecision; image-rendering:optimizeQuality; fill-rule:evenodd; clip-rule:evenodd"
viewBox="0 0 1500 1500"
 xmlns:xlink="http://www.w3.org/1999/xlink">
 <defs>
  <style type="text/css">
   <![CDATA[
    .str0 {stroke:black;stroke-width:20;stroke-miterlimit:22.9256}
    .fil0 {fill:black}
    .fil1 {fill:red}
    .fil2 {fill:white}
   ]]>
  </style>
 </defs>
 <g id="Слой_x0020_1">
  <metadata id="CorelCorpID_0Corel-Layer"/>
  <rect class="fil0 str0" x="-3.53" y="3.53" width="1500" height="1500"/>
  <g id="_2111081192">
   <rect class="fil1" x="414.9" y="661.58" width="284.43" height="585.39"/>
   <path class="fil2" d="M440.91 825.02c-2.1,-24.41 19.63,-61.23 37.93,-77.58 2.83,-2.53 4.48,-4.45 7.62,-6.81 64.12,-48.32 148.45,-25.31 182.4,41.07 5.25,10.27 13.48,32.93 12.53,45.94 1.51,4.18 3.06,340.98 0.46,350.45l-242.59 0.22c-1.16,-5.78 -0.06,-156.69 -0.06,-176.54 0,-20.93 -2.23,-170.6 1.71,-176.75zm20.36 -205.23c-1.11,-10.22 8.97,-6.97 30.97,-6.97l77.06 0c7.35,0 34.72,-3.2 37.14,2.78 3.76,9.27 -17.49,6.3 -31.12,6.3 -20.15,0 -107.86,2.27 -114.05,-2.11zm42.91 -60.03c6.11,-3.36 63.57,-1.77 78.37,-1.77 6.19,0 23.46,-2.74 24.18,4.22 0.82,7.96 -15.87,5.17 -21.78,5.17 -15.68,0 -74.18,1.94 -80.38,-1.82l-0.39 -5.8zm-14.24 -124.63l0.04 132.2c-17.8,0.23 -30.52,-2.08 -39.4,9.74 -7.93,10.57 -4.2,29.64 -4.98,44.04 -9.34,8.26 -65.7,38.61 -73.08,45.22 -15.41,13.8 -12.46,20.98 -12.46,46.33 0,34.82 -1.52,517.05 0.33,531.96 1.97,15.94 13.3,28.41 25.54,33.41 12.95,5.29 40.32,3.2 55.74,3.2l237.2 0c15.2,0 43.33,2.03 56.09,-2.86 12.68,-4.87 23.87,-17.12 26.26,-32.75 2,-13.09 0.47,-499.48 0.47,-532.96 0,-43.22 1.88,-39.25 -49.11,-68.67l-32.2 -19.54c-3.73,-2.48 -2.82,-1.39 -4.4,-4.54 0.02,-12.9 2.54,-33.68 -4.8,-42.86 -10.39,-13.01 -20.45,-7.79 -38.98,-10.04l-0.01 -132.48c-38.25,2.39 -68.28,3.73 -106.36,2.45 -11.03,-0.37 -25.45,-2.33 -35.89,-1.85z"/>
   <path class="fil2" d="M500.89 255.31l0.05 93.74 120.74 -0.01 -1.06 -95.59c0.48,-30.42 -29.28,-56.83 -60.98,-56.35 -30.96,0.46 -59.36,27.28 -58.75,58.21z"/>
   <path class="fil2" d="M412.58 378.73c149.95,9.89 146.77,9.86 296.76,0l-0.25 12.31c-27.32,11.12 -269.2,11.13 -296.83,-0.01l0.32 -12.3zm-1.25 -18.44c-12.7,3.99 -14.26,49.17 0.53,53.36 5.24,1.49 14.83,2.66 20.71,3.57 90.36,14.01 176.9,12.71 267.07,-1.81 11.25,-1.82 20.53,-0.59 20.76,-27.98 0.23,-28.16 -8.97,-27.54 -21.05,-27.47 -28.86,0.18 -283.88,-0.97 -288.02,0.33z"/>
   <path class="fil2" d="M548.63 844.51c-33.31,6.22 -60.8,38.36 -53.82,78.76 5.77,33.37 37.93,62.17 78.4,54.54 33.16,-6.25 61.14,-38.09 54.06,-78.66 -5.75,-32.91 -38.12,-62.21 -78.64,-54.64z"/>
   <path class="fil0" d="M550.93 856.85c-27.13,5.07 -49.53,31.26 -43.84,64.17 4.69,27.19 30.9,50.66 63.87,44.44 27.02,-5.09 49.81,-31.03 44.04,-64.09 -4.68,-26.81 -31.05,-50.68 -64.07,-44.52z"/>
   <path class="fil2" d="M638.01 1051.04c-7.71,-2.61 -102.71,-1.24 -124.1,-1.24 -26.03,0 -31.59,-3.2 -31.21,9.79 0.29,9.83 4.38,8.29 13.12,8.2l103.58 -0.02c27.66,0 46.04,5.17 38.61,-16.73z"/>
   <path class="fil2" d="M609.08 1012.61c-5.99,-4.37 -46.3,-2.04 -56.64,-2.04 -35.78,0 -46.11,-4.26 -39.9,16.69 6.64,2.36 90.03,2.36 96.67,0 1.27,-4.29 2.26,-10.23 -0.13,-14.65z"/>
  </g>
  <g id="_2111078744">
   <path class="fil2" d="M1170.45 1188.33c-2.93,-16.87 -1.28,-44.25 -1.14,-62.33 7.37,5.36 14.86,14.89 22.14,22.08 7.34,7.26 14.18,14.91 21.01,21.92 -13.83,7.59 -7.43,11.88 -42.01,18.33zm-19.26 -60.39l0.39 59.6c-21.35,-3.66 -30.2,-7.04 -42.9,-17.71 7.31,-7.81 13.94,-12.72 21.69,-21.07l20.82 -20.82zm-267.68 15.48c16.7,8.46 29.18,15.55 49.6,20.31 29.59,6.91 55.51,8.99 86.44,4.47 7.93,-1.16 12.75,-3.04 23.07,-4.19 0.91,5.73 -0.13,2.23 2.35,7.61l4.26 8.18c4.16,7.79 6.33,9.44 10.69,14.3 5.33,5.95 6.3,6.62 12.17,11.99 6.11,5.6 5.13,4.85 1.75,13.44 -22.5,2.3 -160.24,3.3 -177.45,-0.76 -5.8,-10.81 -11.31,-58.63 -12.88,-75.35zm215.16 13.59c-10.83,-6.47 -21.55,-24.96 -19.51,-43.31l60.4 -0.38 -38.76 38.33c-3.12,4.52 -1.39,1.62 -2.13,5.36zm-19.45 -60.43c-2.84,-17.72 9.43,-34.22 15.79,-44.15 7.8,5.76 40.08,38.14 44.27,45.21 -16.47,-3.96 -40.95,-1.44 -60.06,-1.06zm146.5 85.86c6.26,5.34 6.99,9.18 10.93,10.85l-33.57 20.56c-44.21,17.04 -99.9,2.76 -124.72,-25.98 -5.32,-6.16 -9.22,-8.87 -13.06,-14.2 -1.81,-2.5 -3.2,-5.13 -4.48,-7.92 -8.25,-18.05 -16.8,-32.6 -17.25,-54.24 -0.67,-31.74 9.93,-64.36 28.33,-82.62l11.16 10.88c-18.25,34.48 -30.31,45.2 -19.3,91.24 3.89,16.26 8.17,22.68 17.1,34.32l8.08 11.49c30.41,30.7 85.84,37.66 122.11,15.8 6.55,-3.95 8.28,-6.68 14.67,-10.18zm-192.53 -34.67c-48.76,11.69 -118.71,3.11 -152.93,-27.77l-22.48 -148.9c-1.16,-6.56 -2.67,-11.79 -2.18,-18.44l259.65 -0.05 -11.9 80.82c-5.59,0.27 -0.79,1.97 -7.04,-3.74 -3.24,-2.95 -4.48,-4.57 -7.55,-7.64 -5.04,-5.05 -7.39,-9.53 -11.83,-14.22 -20.46,1.34 -37.2,34.44 -44.03,56.08 -8.69,27.53 -5.51,55.05 0.29,83.86zm84.79 -212.26l-265.45 0.1 -5.17 -33.19 275.65 0.04 -5.03 33.05zm0.54 114.38c3.05,-28.27 25.71,-147.64 21.22,-162.58 -19.81,-5.38 -125.24,-1.9 -155.05,-1.89 -26.24,0 -52.47,0.02 -78.71,-0.01 -17.08,-0.02 -63.27,-4.8 -75.29,3.12 -3.52,12.1 33.02,241.55 37.98,274.45 13.27,88.09 -10.16,74.41 162.75,74.24 43.67,-0.05 42.29,5.27 61.48,-15.77 17.3,6.33 22.57,11.27 44.48,15.43 47.08,8.95 112.69,-16.52 120.38,-44.4l-139.24 -142.59z"/>
   <path class="fil2" d="M878.93 970.84c-6.72,11.26 8.5,91.55 11.35,99.81l12.3 -1.96c4.23,-12.27 -6.35,-66.07 -9.08,-85.13 -1.43,-9.98 -4.27,-16.32 -14.57,-12.72z"/>
   <path class="fil2" d="M897.13 1087.82c-5.45,22.88 18.57,20.36 14.38,0.1l-14.38 -0.1z"/>
  </g>
  <path class="fil0" d="M591.04 1015.14c-3.48,-2.54 -26.93,-1.19 -32.94,-1.19 -20.82,0 -26.82,-2.47 -23.21,9.71 3.86,1.38 52.36,1.38 56.22,0 0.74,-2.49 1.32,-5.95 -0.07,-8.52z"/>
  <path class="fil0" d="M608.66 1053.21c-4.83,-1.64 -64.44,-0.77 -77.86,-0.77 -16.33,0 -19.83,-2.01 -19.59,6.14 0.18,6.17 2.75,5.2 8.23,5.15l65 -0.02c17.35,0 28.88,3.25 24.22,-10.5z"/>
 </g>
</svg>
