<?xml version="1.0" encoding="UTF-8"?>
<!DOCTYPE svg PUBLIC "-//W3C//DTD SVG 1.1//EN" "http://www.w3.org/Graphics/SVG/1.1/DTD/svg11.dtd">
<!-- Creator: CorelDRAW 2019 -->
<svg xmlns="http://www.w3.org/2000/svg" xml:space="preserve" width="15mm" height="15mm" version="1.1" style="shape-rendering:geometricPrecision; text-rendering:geometricPrecision; image-rendering:optimizeQuality; fill-rule:evenodd; clip-rule:evenodd"
viewBox="0 0 1500 1500"
 xmlns:xlink="http://www.w3.org/1999/xlink">
 <defs>
  <style type="text/css">
   <![CDATA[
    .str0 {stroke:black;stroke-width:20;stroke-miterlimit:22.9256}
    .fil0 {fill:black}
    .fil2 {fill:red}
    .fil1 {fill:white}
   ]]>
  </style>
 </defs>
 <g id="Слой_x0020_1">
  <metadata id="CorelCorpID_0Corel-Layer"/>
  <rect class="fil0 str0" x="-3.53" y="3.53" width="1500" height="1500"/>
  <g id="_1356563368">
   <path class="fil1" d="M775.12 694.49c29.51,0 23.87,40.05 4.71,40.05 -11.96,0 -27.31,-2.93 -25.08,-20.33 1.41,-10.96 8.54,-19.72 20.37,-19.72zm-61.26 -14.14c-41.09,0 -33.27,-56.54 -2.35,-56.54 36.54,0 35.23,56.54 2.35,56.54zm146.07 -40.05c0,-23.49 23.56,-13.89 23.56,-4.71 0,27.88 -23.56,14.03 -23.56,4.71zm-327.47 -200.25l499.45 0c9.04,0 8.31,16.01 9.45,35.34 1.67,28.34 -7.77,91.94 -14.6,119.71 -11.25,45.72 -29.75,90.82 -53.27,125.78 -26.07,38.75 -47.71,64.69 -85.93,93.12 -87.54,65.11 -202.3,63.3 -290.51,-0.35 -71.48,-51.58 -121.83,-137.26 -140.21,-222.6 -7.02,-32.62 -18.72,-108.74 -11.4,-143.78 2.45,-11.69 10.44,-9.58 25.76,-9.58 9.04,0 19.71,22.94 26.66,34.6 8.09,13.55 15.09,25.24 22.95,38.3 6.61,10.98 42.87,70.35 44.63,77.88 -5.59,-2.68 -75.39,-32.49 -75.39,-16.49 0,34.91 32.86,98.45 52.55,131.21 8.29,13.77 16.97,22.45 26.55,34.71 64.94,83.1 182.32,107.08 275.88,57.13 50.23,-26.82 94.35,-80.42 119.38,-132.71 3.01,-6.3 46.99,-102.12 22.74,-102.12 -85.43,0 -75.18,31.65 -153.15,-7.05 -13.32,-6.61 -35.54,-21.22 -54.17,-21.22 -43.86,0 -87.53,54.8 -107.66,64.32 -43.78,20.72 -74.02,-27.15 -2.61,86 15.39,24.4 28.66,50.13 44.3,73.49 -8.97,6.01 -16.97,15.36 -30.63,16.49 -1.79,-6.7 -8.13,-14.73 -11.91,-21.07l-79.22 -130.45c-4.15,-6.95 -10.58,-15.54 -12.53,-22.82 13.06,8.75 10.05,7.07 30.63,7.07 13.96,0 2.63,-14.42 -0.08,-18.73 -4.25,-6.78 -7.92,-12.97 -12.43,-20.58l-64.24 -105.41c-3.11,-5 -15.29,-20.19 -0.99,-20.19zm-171.99 -195.54c1.67,6.25 10.63,18.91 14.58,25.47l55.85 92.73c18.05,28.55 -24.6,10.03 -35.47,18.06 -4.74,3.5 -6.08,27.94 -6.6,35.8 -4.1,61.07 -5.04,105.74 7.18,166.99 9.14,45.86 26.77,99.89 49.38,139.1 11.59,20.1 23.41,38.45 37.25,56.98 41.74,55.89 95.48,96.85 161.21,121.5 11.62,4.36 23.94,7.81 36.78,10.34 10.9,2.14 33.23,1.9 33.23,13.89l0 341.6c0,11.51 -24.33,7.08 -35.34,7.07 -31.26,-0.02 -106.11,-2.56 -127.22,2.36 -3.98,17.08 -3.98,39.46 0,56.54 25.83,6.02 322.74,2.36 374.59,2.36 13.95,0 9.43,-22.52 9.43,-47.12 0,-14.34 -32.27,-9.43 -56.54,-9.43 -114.12,0 -106.37,8.97 -106.04,-25.89l0.02 -334.56c137.36,-11.43 250.03,-134.22 294.79,-258.85 28.5,-79.34 30.33,-121.43 30.33,-205.27 0,-20.3 -3.18,-53.96 -7.07,-70.67 -16.85,-8.09 -18.37,-2.36 -37.7,-2.36 -11.99,0 -15.42,-2.01 -23.69,-2.24 -9.37,-0.28 -11.23,2.24 -23.42,2.24 -12,0 -15.42,-2.01 -23.7,-2.24 -9.37,-0.28 -11.23,2.24 -23.42,2.24 -12,0 -15.42,-2.01 -23.7,-2.24 -9.37,-0.28 -11.23,2.24 -23.42,2.24 -12,0 -15.42,-2.01 -23.7,-2.24 -9.37,-0.28 -11.23,2.24 -23.42,2.24 -12,0 -15.42,-2.01 -23.69,-2.24 -9.38,-0.28 -11.23,2.24 -23.43,2.24 -11.99,0 -15.42,-2.01 -23.69,-2.24 -9.38,-0.28 -11.23,2.24 -23.43,2.24 -11.99,0 -15.42,-2.01 -23.69,-2.24 -9.37,-0.28 -11.23,2.24 -23.43,2.24 -11.99,0 -15.41,-2.01 -23.69,-2.24 -9.37,-0.28 -11.23,2.24 -23.42,2.24 -12,0 -15.42,-2.01 -23.7,-2.24 -9.37,-0.28 -11.23,2.24 -23.42,2.24 -12,0 -15.42,-2.01 -23.7,-2.24 -9.37,-0.28 -11.23,2.24 -23.42,2.24 -12,0 -15.42,-2.01 -23.69,-2.24 -9.38,-0.28 -11.23,2.24 -23.43,2.24 -13.13,0 -19.57,-3.19 -32.05,-1.3 -15.5,2.35 -16.79,-1.27 -22.94,-12.03l-84.01 -139.81c0,-11.48 15.13,-24.58 3.88,-53.35 -21.74,-55.61 -108.24,-32.11 -99.68,24.12 4.57,30.01 26.52,45.73 60.46,45.73z"/>
   <path class="fil2" d="M1142.64 501.3l0 -84.81c10.29,2.75 34.16,30.86 46.54,42.99 6.48,6.34 11.52,8.19 12.36,18.26 -13.2,3.53 -32.8,23.56 -58.9,23.56zm16.49 -113.08c8.12,-9.34 2.97,-7.07 9.42,-7.07l82.46 0c0,32.48 -17.15,52.02 -28.27,73.03 -10.32,-6.91 -22.8,-21.62 -32.39,-31.21 -6.07,-6.07 -10.41,-10.44 -16.5,-16.49 -13.24,-13.17 -8.09,-5.65 -14.72,-18.26zm2.36 -42.41c0,-7.09 56.2,-60.23 61.25,-63.61 12.77,8.55 30.14,48.78 30.63,70.68l-84.82 0c-5.42,0 -7.06,-1.64 -7.06,-7.07zm-153.14 -63.61c10.35,6.93 21.71,20.53 31.22,30.04 5.67,5.68 9.62,9.65 15.31,15.31 5.97,5.94 12.39,9.52 14.73,18.26 -88.15,0 -101.38,12.38 -80.12,-35.36 3.64,-8.19 12.07,-23.7 18.86,-28.25zm131.93 42.41c-4.99,-3.35 -11.78,-5.12 -11.78,-11.78 0,-90.67 -11.24,-91.07 38.03,-73.37 22.2,7.98 25.16,16.55 35.01,19.18 -3.34,12.48 -49.23,48.01 -61.26,65.97zm-113.08 -68.32c7.33,-1.96 10.85,-5.97 16.57,-9.35 6.93,-4.08 56.46,-27.9 56.46,-11.86l0 77.75c0,6.37 1.34,1.58 -5.73,8.4 -0.25,0.24 -0.91,0.65 -1.34,1.02 -9.54,-2.55 -41.94,-38.46 -51.24,-47.7 -13.24,-13.17 -8.09,-5.65 -14.72,-18.26zm-75.39 106.01c0,5.43 1.64,7.07 7.07,7.07l129.57 0c12.31,0 5.17,-23.56 32.99,-23.56 19.46,0 28.29,27.99 13.5,41.78 -7.85,7.32 -15.86,2.65 -15.86,12.41l0 129.57c0,7.26 3.26,7.07 9.42,7.07 82.93,0 157.85,-75.58 157.85,-162.56 0,-142.85 -176.57,-232.82 -284.48,-124.28 -28.58,28.75 -50.06,67.42 -50.06,112.5z"/>
   <g>
    <polygon class="fil2 str0" points="700.49,626.57 711.5,623.86 721.41,625.48 729.31,630.08 736.88,641.54 738.66,651.18 736.51,664.32 730.23,673.97 716.75,680.16 705.43,679.4 694.05,673.74 684.66,662.23 686.23,647.61 "/>
    <polygon class="fil2 str0" points="770.39,698.95 777.13,697.29 783.2,698.28 788.04,701.1 792.68,708.12 793.77,714.02 792.45,722.08 788.61,727.99 780.35,731.78 773.42,731.31 766.44,727.85 760.69,720.79 761.65,711.84 "/>
    <polygon class="fil2 str0" points="853.33,599.46 870.57,595.21 886.11,597.74 898.48,604.95 910.34,622.91 913.13,638 909.76,658.6 899.92,673.71 878.8,683.41 861.07,682.22 843.24,673.35 828.53,655.32 830.99,632.42 "/>
   </g>
  </g>
 </g>
</svg>
