<?xml version="1.0" encoding="UTF-8"?>
<!DOCTYPE svg PUBLIC "-//W3C//DTD SVG 1.1//EN" "http://www.w3.org/Graphics/SVG/1.1/DTD/svg11.dtd">
<!-- Creator: CorelDRAW 2019 -->
<svg xmlns="http://www.w3.org/2000/svg" xml:space="preserve" width="15mm" height="15mm" version="1.1" style="shape-rendering:geometricPrecision; text-rendering:geometricPrecision; image-rendering:optimizeQuality; fill-rule:evenodd; clip-rule:evenodd"
viewBox="0 0 1500 1500"
 xmlns:xlink="http://www.w3.org/1999/xlink">
 <defs>
  <style type="text/css">
   <![CDATA[
    .str0 {stroke:black;stroke-width:20;stroke-miterlimit:22.9256}
    .fil0 {fill:black}
    .fil2 {fill:red}
    .fil1 {fill:white}
   ]]>
  </style>
 </defs>
 <g id="Слой_x0020_1">
  <metadata id="CorelCorpID_0Corel-Layer"/>
  <rect class="fil0 str0" x="-3.53" y="3.53" width="1500" height="1500"/>
  <path class="fil1" d="M1059.33 1263.81l25.76 0.42c3.22,14.9 4.3,21.1 10.5,33.3l-47.84 -0.78c6.6,-12 7.88,-18.15 11.58,-32.94zm59.31 -24.8l-92.01 -1.5c-0.95,-14.32 -3.16,-9.65 -3.26,-25.83 64.47,6.43 34.73,5.94 99.37,1.63 -1.42,14.19 -3.39,9.57 -4.1,25.7zm-10.2 -51.7c-129.66,-2.13 -75.43,18.9 -111.68,-149.08l158.25 2.59 -22.79 122.4c-3.07,18.54 -4.1,24.41 -23.78,24.09zm39.45 -161.33l-154.57 -2.53 -3.67 -44.15 173.69 2.76c-0.2,12.22 -1.39,17.67 -3.15,26.69 -2.17,11.15 -0.13,17.43 -12.3,17.23zm-118 237.35c-4.24,42.57 -37.19,23.46 -37.52,43.56l-0.3 18.4 158.24 2.59c0.73,-44.15 2.25,-17.41 -22.59,-36.08 -9.42,-7.08 -13.09,-11.75 -13.18,-27.09 38.38,0.63 25.27,5.84 39.55,-71.4l42.85 -240.15 -239.21 -3.92c-0.36,21.59 35.68,244.18 41.72,292.84 3.29,26.54 1.42,20.77 30.44,21.25z"/>
  <g id="_1362934488">
   <path class="fil1" d="M515.01 784.98c85.96,-10.67 178.07,26.27 200.26,85.3 31.01,82.51 -74.63,132.7 -144.7,139.23 -230.75,21.5 -299.83,-194.23 -55.56,-224.53zm-22.08 -153.42c-12.17,-16.47 -11.68,-28.2 -21.07,-47.02l-30.41 -0.22c4.74,41.29 22.25,77.02 1.6,115.67 -39.15,73.25 -176.34,83.03 -200.71,199.2 -26.2,124.99 57.01,330.02 98.21,429.16 23.7,4.22 379.38,4.44 394.58,0.12 14.12,-6.99 132.05,-288.94 104.46,-425.82 -16.28,-80.75 -72.54,-102.84 -130.81,-140.14 -113.84,-72.88 -77.03,-98.06 -68.96,-178.2l-32.09 -0.56c-13.77,81.41 -85.29,87.72 -114.8,47.81z"/>
   <path class="fil1" d="M477.71 347.69l0.01 3.81c0.12,63.29 -32.34,133.51 -36.91,202.03l31.06 -0.59c7.7,-16.18 16.6,-71.22 68.59,-71.36 45.48,-0.13 53.97,36.93 68.61,70.76l31.41 1.26c-5.68,-88.99 -56.93,-178.13 -27.36,-266.78 11.18,-33.51 12.01,-33.82 -26.75,-33.25 -188.09,2.78 -108.88,-19.77 -108.66,94.12z"/>
   <path class="fil2" d="M686.44 911.78c21.15,-59.13 -73.14,-93.09 -130.54,-96.54 -35.52,-2.13 -69.81,3.72 -100.58,15.16 -23.76,8.83 -54.33,28.9 -60.91,53.57 -16.17,60.72 75.32,92.21 130.65,95.02 66.53,3.38 143.77,-18.03 161.38,-67.21z"/>
   <path class="fil1" d="M453.43 149.49l16.96 72.2 138.68 0.72 20.39 -72.5c-42.69,-26.82 -134.91,-27.45 -176.03,-0.42z"/>
   <path class="fil2" d="M575.9 584c12.83,-72.7 -56.27,-98.91 -70.02,-33.95 -15.6,73.68 57.66,104 70.02,33.95z"/>
  </g>
 </g>
</svg>
