<?xml version="1.0" encoding="UTF-8"?>
<!DOCTYPE svg PUBLIC "-//W3C//DTD SVG 1.1//EN" "http://www.w3.org/Graphics/SVG/1.1/DTD/svg11.dtd">
<!-- Creator: CorelDRAW 2019 -->
<svg xmlns="http://www.w3.org/2000/svg" xml:space="preserve" width="15mm" height="15mm" version="1.1" style="shape-rendering:geometricPrecision; text-rendering:geometricPrecision; image-rendering:optimizeQuality; fill-rule:evenodd; clip-rule:evenodd"
viewBox="0 0 1500 1500"
 xmlns:xlink="http://www.w3.org/1999/xlink">
 <defs>
  <style type="text/css">
   <![CDATA[
    .str0 {stroke:black;stroke-width:20;stroke-miterlimit:22.9256}
    .fil0 {fill:black}
    .fil2 {fill:#E00404}
    .fil1 {fill:white}
   ]]>
  </style>
 </defs>
 <g id="Слой_x0020_1">
  <metadata id="CorelCorpID_0Corel-Layer"/>
  <rect class="fil0 str0" x="-3.53" y="3.53" width="1500" height="1500"/>
  <ellipse class="fil0 str0" cx="739.58" cy="732.76" rx="587.82" ry="585.5"/>
  <ellipse class="fil1 str0" cx="746.9" cy="734.56" rx="503.38" ry="501.39"/>
  <ellipse class="fil1 str0" cx="744.14" cy="737.31" rx="449.59" ry="447.81"/>
  <ellipse class="fil1 str0" cx="751.05" cy="734.93" rx="309.07" ry="307.85"/>
  <g id="_1371026392">
   <path class="fil2" d="M923.09 639.72c-9.8,41.97 -48.66,78.56 -98.29,78.74 -38.8,0.14 -19.86,-18.82 -80.16,45.15 -7.11,7.55 -15.63,15.05 -22.49,22.84l-84.67 92.1c-8.28,8.9 -33.71,42.89 -43.9,44.42 -13.33,2 -24.36,-10.31 -18.37,-23.6 2.01,-4.47 64.43,-59.67 69.29,-63.65l68.89 -64.15c94.09,-90.15 61.6,-55.48 65,-105.98 0.82,-12.15 4.38,-24.61 9.07,-34.64 36.53,-78.1 158.03,-87.12 135.63,8.77zm21.3 -6.05c10.08,-67.12 -42.45,-98.66 -104.85,-75.8 -41.48,15.2 -81.46,56.98 -81.32,115.1 0.07,28.71 8.34,18.38 -10.03,36.71l-177.49 165.54c-22.46,18.5 -23.91,49.29 2.9,63.98 29.28,16.04 48.55,-13.15 61.63,-28.14 36.87,-42.27 79.77,-88.08 118.12,-128.21 8.28,-8.66 15.26,-16.2 23.72,-24.63 11.34,-11.29 18.25,-22.2 27.64,-21.49 17.17,1.31 27.17,2.98 44.94,-1.08 48.95,-11.18 87.01,-50.43 94.74,-101.98z"/>
   <path class="fil2" d="M707.94 731.39c47.34,-47.17 36.87,-27.4 37.85,-61.51 0.38,-13.3 -0.26,-11.11 -7.22,-17.96l-89.81 -90.07c-13.97,-13.73 -16.87,-21.34 -30.12,-20.51 -3.98,6.15 -9.09,8.91 1.1,19.33l95.09 95.33c9.8,10.13 21.66,15.33 8.72,26.7 -4.96,-2.72 -4.34,-3.26 -9.08,-8.23l-87.77 -87.59c-9.48,-9.21 -27.59,-32.53 -35.09,-17.08 -4.21,8.67 5.54,15.58 9.7,19.86 28.49,29.25 69.02,67.07 95.08,95.29 4.97,5.39 12.36,9.57 14.9,16.94 -3.78,3.18 -3.32,4.37 -8.9,6.36l-63.11 -62.85c-10.85,-11.03 -20.76,-20.86 -31.71,-31.75 -11.91,-11.85 -25.55,-30.64 -35.5,-24.47 -13.86,8.6 6.48,23.17 19.34,36.09 14.56,14.61 92.32,91.03 94.44,96.66l-12.3 5.3 -66.13 -66.59c-6.03,-5.89 -45.13,-47.44 -50.79,-49.02 -9.99,-2.79 -15.49,7.92 -10.5,15.1l99.5 99.99c7.49,7.34 23.9,27.69 35.61,29.77l26.7 -25.09z"/>
   <path class="fil2" d="M886.27 934.88c6.48,7.3 13.52,15.79 26.23,17.7 27.92,4.19 48.85,-20.54 41.63,-46.32 -3.37,-12.02 -11.48,-17.47 -19.17,-24.58 -7.45,-6.89 -16.32,-13.67 -23.34,-20.52l-91.44 -83.85c-6.4,-6.14 -16.08,-17.24 -22.69,-20.96l-13.02 13.32c6.13,7.83 30.15,29.08 39.7,38.43 26.73,26.18 56.1,49.99 82.37,74.79 7.29,6.87 13.35,12.35 20.74,18.51 21.67,18.06 -2.89,45.92 -23.4,23.37l-55.79 -62.01c-12.53,-13.98 -24.96,-27.17 -37.43,-41.12 -4.25,-4.76 -32.95,-37.04 -39.23,-40.14 -3.79,4.99 -8.3,8.62 -12.03,13.86 5.32,7.59 15.29,16.82 21.76,23.98 19.9,22.01 45.12,46.94 63.24,68.23 14.44,16.97 27.74,31.39 41.87,47.31z"/>
  </g>
 </g>
</svg>
