<?xml version="1.0" encoding="UTF-8"?>
<!DOCTYPE svg PUBLIC "-//W3C//DTD SVG 1.1//EN" "http://www.w3.org/Graphics/SVG/1.1/DTD/svg11.dtd">
<!-- Creator: CorelDRAW 2019 -->
<svg xmlns="http://www.w3.org/2000/svg" xml:space="preserve" width="15mm" height="15mm" version="1.1" style="shape-rendering:geometricPrecision; text-rendering:geometricPrecision; image-rendering:optimizeQuality; fill-rule:evenodd; clip-rule:evenodd"
viewBox="0 0 1500 1500"
 xmlns:xlink="http://www.w3.org/1999/xlink">
 <defs>
  <style type="text/css">
   <![CDATA[
    .str0 {stroke:black;stroke-width:20;stroke-miterlimit:22.9256}
    .fil0 {fill:black}
    .fil2 {fill:red}
    .fil1 {fill:white}
   ]]>
  </style>
 </defs>
 <g id="Слой_x0020_1">
  <metadata id="CorelCorpID_0Corel-Layer"/>
  <rect class="fil0 str0" x="-3.53" y="3.53" width="1500" height="1500"/>
  <g id="_1368211216">
   <path class="fil1" d="M506.77 922.5l122.32 0c0,40.97 5.03,39.9 15.63,78.61 5.55,20.29 12.44,44.2 12.44,67.76 0,35.58 -34.38,59.95 -64.3,66.04 -23.23,4.73 -17.16,-6.39 -17.83,48.33 -0.15,11.78 -2.19,16.48 -2.11,29.97 0.06,11.38 0.02,22.75 0.02,34.12l8.02 0c0,-14.01 2.01,-19.57 2.01,-34.09 20.53,1.71 62.97,14.09 57.12,36.93 -9.92,38.76 -132.4,38.76 -142.32,0 -5.85,-22.84 36.6,-35.22 57.13,-36.93 0,32.4 -3.82,33.78 10.02,34.09 0,-36.85 -4.01,-73.25 -4.01,-110.28 -21.24,0 -42.29,-10.05 -54.48,-19.72 -40.79,-32.36 -23.91,-79.51 -10.99,-123.96 4.19,-14.41 18.82,-55.27 11.33,-70.87zm-36.09 142.36c0,11.68 4.1,24.28 7.97,32.14 2.75,5.59 3.53,7.54 7.56,12.48 28.5,34.96 43.78,26.6 66.68,37.59 0,73.5 7.34,54.95 -17.93,60.27 -74.69,15.71 -56.02,82.1 33.97,82.1 18.72,0 37.04,-4.84 50.44,-9.72 55.15,-20.04 28.77,-74.5 -36.4,-74.5 0,-22.8 2,-37.83 2,-60.15 17.9,0 48.39,-15.37 60.64,-27.6 45.78,-45.71 2.71,-119.32 -6.82,-170.72 -8.14,-43.9 48.23,-34.28 -136.03,-34.28 -10.87,0 -0.34,13.01 -4.48,37.63l-20.39 73.85c-2.57,10.18 -7.21,30.14 -7.21,40.91z"/>
   <path class="fil1" d="M847.6 1156.42l159.55 0 0 53.18 -159.55 0 0 -53.18zm186.15 -249l0 190.98 -21.76 0 0 -188.57 -227.37 74.58 0.12 -229.3 270 -90.63c19.65,-6.95 15.27,6.78 15.27,73.71 0,50.77 0,101.54 0,152.3 -8.36,0.7 -12.95,3.09 -20.94,5.66 -7.32,2.36 -15.32,3.25 -15.32,11.27zm-82.2 -333.62c4.11,-5.6 11.34,-10.22 19.34,-12.09 2.75,10.31 33.36,51.07 42.53,66.26 5.26,8.69 8.61,17.17 13.07,25.61 -6.92,1.61 -16,4.49 -21.75,7.25 -3.94,-7.44 -6.93,-14.83 -11.59,-22.26l-38.69 -58.01c-2.1,-3.91 -2.21,-5.42 -2.91,-6.76zm-26.59 -45.93c10.61,-2.48 10.1,-6.29 21.75,-7.26 1.96,8.42 8.24,19.31 12.09,26.6 -8.53,4.51 -10.79,8.76 -21.76,9.67l-12.08 -29.01zm-45.94 -253.84l96.71 0 0 70.11 -96.71 0 0 -70.11zm-26.59 -2.42l0 77.36c0,14.53 9.67,12.91 9.67,21.76 0,124.33 7.55,103.5 -57.54,201.13 -24.91,37.38 -46.41,70.72 -46.41,132.48l0 585.04c0,5.57 1.68,7.25 7.25,7.25l323.95 0c5.57,0 7.25,-1.68 7.25,-7.25l0 -587.45c0,-24.57 -6.17,-55.45 -13.76,-73.27 -28.74,-67.41 -90.19,-115.16 -90.19,-178.15l0 -79.78c0,-8.85 9.67,-7.23 9.67,-21.76l0 -77.36c0,-16.43 -12.31,-24.17 -29.01,-24.17l-87.03 0c-19.04,0 -33.85,5.28 -33.85,24.17z"/>
   <path class="fil2" d="M557.49 1125.59l22.16 0c31.09,0 53.32,-23.36 59.61,-49.41 3.64,-15.07 -8.99,-58.88 -14.34,-77.11 -1.47,-5.01 -0.61,-8.27 -6.5,-8.27l-72.01 0c-6.13,0 -5.65,4.95 -8.85,17 -5.06,19.04 -13.3,46.89 -13.3,66.09l-11.08 0c0,-31.62 10.55,-57.04 16.62,-83.09l-14.77 0c-5.16,10.76 -20.56,71 -16.92,87.03 5.58,24.58 29.86,47.76 59.38,47.76z"/>
  </g>
 </g>
</svg>
