<?xml version="1.0" encoding="UTF-8"?>
<!DOCTYPE svg PUBLIC "-//W3C//DTD SVG 1.1//EN" "http://www.w3.org/Graphics/SVG/1.1/DTD/svg11.dtd">
<!-- Creator: CorelDRAW 2019 -->
<svg xmlns="http://www.w3.org/2000/svg" xml:space="preserve" width="15mm" height="15mm" version="1.1" style="shape-rendering:geometricPrecision; text-rendering:geometricPrecision; image-rendering:optimizeQuality; fill-rule:evenodd; clip-rule:evenodd"
viewBox="0 0 1500 1500"
 xmlns:xlink="http://www.w3.org/1999/xlink">
 <defs>
  <style type="text/css">
   <![CDATA[
    .str0 {stroke:black;stroke-width:20;stroke-miterlimit:22.9256}
    .str1 {stroke:red;stroke-width:20;stroke-miterlimit:22.9256}
    .fil0 {fill:black}
    .fil1 {fill:red}
    .fil2 {fill:white}
   ]]>
  </style>
 </defs>
 <g id="Слой_x0020_1">
  <metadata id="CorelCorpID_0Corel-Layer"/>
  <rect class="fil0 str0" x="-3.53" y="3.53" width="1500" height="1500"/>
  <polygon class="fil1 str1" points="483.44,342.16 508.61,342.16 483.44,480.61 468.63,481.78 466.29,481.13 "/>
  <path class="fil2" d="M323.96 1244.26l0 -56.64 421.64 0c0,150.67 10.24,119.57 -371.29,119.57 -19.2,0 -50.35,-28.94 -50.35,-62.93zm0 -522.33c0,-35.64 125.87,-90.22 125.87,-125.86l0 -81.81 169.91 0c0,109.1 -9.78,89.84 93.59,164.42 39.95,28.82 32.27,19.54 32.27,99.89l-421.64 0 0 -56.64zm157.33 -232.85c-23.82,-2.08 -20.33,19.42 -8.98,-59.26 3.25,-22.53 8.58,-61.29 8.98,-79.19l25.17 0 -25.17 138.45zm-6.29 -201.38l31.46 0 0 37.76 -31.46 0 0 -37.76zm0 -44.05c0,-20.65 12.69,-23.61 31.46,-25.17l0 50.34 -31.46 0 0 -25.17zm-37.76 12.59c0,54.89 10.7,90.88 2.88,141.31 -7.55,48.67 -16.25,89.43 -15.46,141.89 1.02,67.21 4.55,56.9 -52.08,98.95 -26.58,19.74 -73.79,42.45 -73.79,83.54l0 522.33c0,57.28 44.02,94.4 100.69,94.4l264.31 0c66.25,0 113.28,-35.59 113.28,-100.69l0 -509.75c0,-76.03 -121.15,-90.52 -131.06,-152.13 -6.84,-42.58 2.27,-94.63 -5.64,-132.81 -30.24,-145.92 29.07,-243.68 -52.09,-243.68 -100.48,0 -151.04,-16.28 -151.04,56.64z"/>
  <g id="_2106124984">
   <path class="fil2" d="M974.85 1204.1l207.91 0.14c0.69,-7.05 2.88,-15.38 4.59,-22.45 4.96,-20.45 9.08,-47.11 14.33,-67.27 1.87,-7.19 2.72,-15.2 4.51,-22.4 3.64,-14.72 6.28,-31.91 9.67,-44.37l4.42 -23.13 -177.69 0.17c-34.5,-0.35 -72.98,0.93 -105.47,-0.22 0.24,4.22 1,7.48 1.99,11.18 1.06,3.91 1.22,7.37 2.31,11.49 4.08,15.27 5.43,27.82 9.7,44.35l19.02 89.6c1.63,6.73 3.78,16.34 4.71,22.91z"/>
   <path class="fil2" d="M965.14 1231.67l227.11 0.01 0.04 60.33 -227.15 -0.01 0 -60.33zm-58.64 -284.52l345.07 -0.03c-1.17,6.12 -2.52,11.02 -3.72,17.39l-14.28 67.32c-1.44,5.49 -2.27,11.33 -3.75,16.72l-7.29 34.19c-2.41,16.31 -10.46,46.85 -14.1,67.43 -0.45,2.58 -1.35,5.31 -2.03,7.92l-6.87 33.93c-1.58,6.76 -4.97,20.23 -5.55,26l-230.57 0.07c-0.88,-8.29 -3.27,-17.08 -5.4,-24.97 -0.78,-2.9 -0.82,-5.89 -1.61,-8.98l-7.31 -33.42c-2.66,-12.68 -7.54,-39.12 -10.64,-50.59l-10.71 -51.1c-3.21,-11.35 -7.61,-37.66 -10.59,-50.58l-3.75 -16.71c-1.11,-4.16 -7.32,-32.3 -6.9,-34.59zm338.67 95.71c2.52,-12.98 5.19,-25.79 8.22,-38.52l3.84 -19.86c1.23,-5.53 2.77,-13.43 4.25,-18.71 0.98,-3.5 1.11,-6.56 1.92,-9.91 3.56,-14.57 5.95,-22.32 -6.99,-22.33 -62.41,-0.08 -124.8,0.01 -187.57,0.01l-163.88 0c-7.57,0 -15.59,-0.56 -13.7,9.31 2.18,11.35 5.34,28 8.26,39.02 3.26,12.29 4.97,26.15 8.12,38.64 3.2,12.63 4.94,26.05 8.13,38.57 1.52,5.95 3.35,13.66 4.38,19.37 3.5,19.46 7.97,37.87 11.92,57.76 0.62,3.15 1.81,6.4 2.41,9.44 0.74,3.71 0.96,6.1 1.98,9.92l12.19 57.64c0.55,3.27 1.44,6.76 2.15,9.6 1.36,5.49 0.75,27.41 0.75,33.97 0,54.48 -5.14,49.09 21.86,49.09 70.2,0 138.06,0 207.31,0 19.71,0 25.21,2.84 25.18,-10.26l0.05 -69.6 10.68 -48.49c2.37,-12.87 4.82,-25.72 8.11,-38.61 0.86,-3.38 1.04,-6.66 1.88,-9.92 0.91,-3.46 1.42,-5.47 1.95,-9.11l14.45 -68.01c0.47,-3.08 1.55,-5.9 2.15,-9.01z"/>
   <path class="fil1" d="M975.42 846.55c-5.52,2.62 -5.22,8.58 1.22,14.11l7.1 7.36c1.11,1.04 1.49,1.17 2.45,2.16l7.19 7.3c0.92,0.76 0.06,-0.12 1.08,0.88 2.51,2.46 6.06,7.88 11.38,4.78 1.64,-0.96 3.24,-2.98 3.43,-5.61 0.07,-0.91 -0.22,-2.73 -0.53,-3.56 -1.02,-2.74 -0.18,-0.81 -1.99,-2.63l-1.66 -1.62c-0.15,-0.13 -0.59,-0.46 -0.73,-0.59 -1.26,-1.17 0.05,0.02 -0.96,-1.02l-16.75 -16.82c-0.09,-0.1 -0.21,-0.25 -0.3,-0.35 -2.85,-2.89 -6.12,-6.67 -10.93,-4.39z"/>
   <path class="fil1" d="M1175.83 846.86l-19.16 18.62c-0.89,0.94 -1.65,1.51 -2.37,2.24 -0.87,0.89 -1.49,1.47 -2.32,2.3 -2.33,2.33 -3.3,2.53 -3.75,6.03 -0.63,4.95 4.55,10.4 10.13,6.93l3.39 -3.19c0.86,-0.89 0.28,-0.49 1.24,-1.4l18.91 -18.6c9.11,-7.9 0.46,-16.7 -6.07,-12.93z"/>
   <path class="fil1" d="M1072.25 821.68l-0.32 29.69c0,6.29 -1.16,10.02 2.76,13.23 4.79,3.92 9.58,-0.51 10.44,-2.91 1.57,-4.37 -0.03,-25.18 0.1,-29.95 0.15,-5.2 1.74,-9.35 -2.68,-12.53 -4.68,-3.36 -7.63,0.33 -10.3,2.47z"/>
  </g>
 </g>
</svg>
