<?xml version="1.0" encoding="UTF-8"?>
<!DOCTYPE svg PUBLIC "-//W3C//DTD SVG 1.1//EN" "http://www.w3.org/Graphics/SVG/1.1/DTD/svg11.dtd">
<!-- Creator: CorelDRAW 2019 -->
<svg xmlns="http://www.w3.org/2000/svg" xml:space="preserve" width="15mm" height="15mm" version="1.1" style="shape-rendering:geometricPrecision; text-rendering:geometricPrecision; image-rendering:optimizeQuality; fill-rule:evenodd; clip-rule:evenodd"
viewBox="0 0 1500 1500"
 xmlns:xlink="http://www.w3.org/1999/xlink">
 <defs>
  <style type="text/css">
   <![CDATA[
    .str0 {stroke:black;stroke-width:20;stroke-miterlimit:22.9256}
    .fil0 {fill:black}
    .fil2 {fill:red}
    .fil1 {fill:white}
   ]]>
  </style>
 </defs>
 <g id="Слой_x0020_1">
  <metadata id="CorelCorpID_0Corel-Layer"/>
  <rect class="fil0 str0" x="-3.53" y="3.53" width="1500" height="1500"/>
  <g id="_1926541912">
   <path class="fil1" d="M522.38 728.57l408.11 0 0 87.45 -408.11 0 0 -87.45zm408.11 -194.34l0 163.57 -408.11 0 0 -163.57c0,-26.46 -22.34,-8.09 -69.26,-55.43 -35.18,-35.5 -42.01,-94.13 -22.38,-141.47 5.56,-13.38 16.19,-28.16 25.64,-37.53 32.26,-32 82.56,-48.62 128.51,-35.36 25.51,7.35 21.36,9.68 37.87,-12.02 41.25,-54.24 119.73,-66.59 174.65,-30.46 6.82,4.49 10.83,8.69 17.18,13.59 4.81,3.71 3.9,2.57 7.42,7.16 25.19,32.87 20.83,29.33 44.71,22.09 28.6,-8.66 65.7,-4.26 92.25,7.75 4.58,2.07 4.89,2.82 9.33,5.24 9.84,5.37 19.58,13.46 27.38,21.21 9.13,9.08 20.54,24.49 25.98,37.18 28.31,66.18 1.71,139.15 -56.07,170 -21.11,11.27 -35.1,8.68 -35.1,28.05zm-331.99 -296.35c-7.03,-0.16 -14.39,-3.31 -21.01,-4.9 -89.46,-21.5 -187.9,57.78 -187.9,152.27 0,43.21 8.88,71.47 32.37,102.04 13.7,17.83 49.95,50.16 69.66,51.8l-0.02 280.18c-0.09,14.12 0.37,25.9 14.59,25.9l440.49 0c20.42,0 14.58,-34.22 14.58,-64.78l0 -241.3c19.41,-1.61 55.01,-33.07 68.95,-50.88 79.58,-101.67 9.16,-258.43 -130.49,-258.43 -22.31,0 -34.43,7.85 -45.35,8.1 -1.28,-4.81 -5.86,-9.44 -9.32,-13.35 -26.14,-29.52 -70.47,-53.05 -110.52,-53.05 -43.31,0 -67.76,6.92 -101.08,30.09 -4.22,2.93 -9.92,7.45 -13.51,10.78l-16.41 17.6c-3.49,4.35 -3.5,2.2 -5.03,7.93z"/>
   <path class="fil2" d="M711.86 550.43l0 61.54c0,19.11 29.15,19.11 29.15,0l0 -61.54c0,-18.22 -29.15,-18.22 -29.15,0z"/>
   <path class="fil2" d="M608.22 553.67c0,15.98 -2.77,44.25 4.31,52.36 10.56,12.09 26.46,3.52 26.46,-10.26 0,-27.41 5.96,-60.53 -15.94,-58.99 -8.34,0.59 -14.83,8.47 -14.83,16.89z"/>
   <path class="fil2" d="M813.89 552.05c0,15.35 -2.7,46.73 3.87,54.42 9.61,11.24 26.9,4.01 26.9,-13.94 0,-23.96 5.34,-54.3 -14.84,-55.76 -7.69,-0.55 -15.93,6.03 -15.93,15.28z"/>
  </g>
  <path class="fil1" d="M396.82 1132.71l0 11.11c0.83,2.99 1.17,10.18 1.89,13.96 2.32,12.26 7.48,25.78 14.02,35.67 9,13.59 18.92,24.51 33.32,33.22 32.87,19.9 66.69,23.26 110.24,20.04 48.41,-3.58 103.82,-18.76 141.32,-48.32 1.52,-1.2 3.12,-2.64 4.8,-3.94 2.77,-2.14 6.02,-5.39 8.4,-7.73 9.73,-9.51 14.51,-17.04 21.99,-28.46l1.86 2.21c7.23,11.58 7.49,10.97 15.43,20.87 5.65,7.04 7.31,7.09 12.6,12.27 2.72,2.68 5.77,4.81 8.95,7.18 3.4,2.54 6.13,4.45 9.85,6.94 33.4,22.41 82.62,34.72 125.34,38.73 55.56,5.23 113.04,-3.76 144.08,-49.59 4.58,-6.75 8.03,-12.94 11.33,-21.59 4.98,-13.06 5.09,-22.66 6.54,-26.28l0 -19.7c-3.05,-7.81 -0.28,-13.19 -9.98,-32.2 -9.58,-18.76 -24.82,-32.32 -44.95,-38.39 -46.56,-14.03 -104.53,19.6 -88.53,66.34 1.8,5.26 4.08,9.52 6.99,13.81 2.11,3.09 6.45,9.86 9.59,11.69 -2.87,-15.16 -6.6,-25.89 -0.18,-41.36 10.65,-25.67 40.08,-33.32 64.04,-22.24 40.06,18.52 45.39,82.64 3.79,105.53 -4.77,2.63 -11.9,4.85 -18.05,5.58 -36.17,4.31 -73.43,-25.9 -93.37,-47.85 -2.14,-2.36 -3.98,-3.55 -6,-6.08l-11.22 -12.98c-2.02,-2.4 -3.2,-3.86 -5.25,-6.16l-18.93 -22.75c-1.01,-1.18 -1.61,-1.56 -2.57,-2.77l-23.43 -24.31c-9.92,-7.4 -15.42,-13.47 -30.25,-17.44 -20.31,-5.45 -39.01,2.78 -54.48,13.65 -4.85,3.41 -8.86,7.09 -13.08,10.03l-13.52 -10.49c-28.41,-20.2 -58.67,-20.36 -84.69,4.76 -4.48,4.32 -8.15,6.97 -12.41,11.79 -2.28,2.57 -2.98,3.51 -5.8,6.3 -1.27,1.26 -1.6,2.03 -2.72,3.34 -1,1.16 -1.64,1.55 -2.62,2.73 -14.56,17.45 -29.08,35.39 -43.98,51.46 -4.14,4.46 -7.79,7.83 -12.44,11.74 -1.37,1.15 -1.74,1.8 -3.03,3 -19.12,17.64 -51.44,36.26 -79.4,31.73 -19.24,-3.12 -33.5,-16.6 -39.91,-32.01 -8.03,-19.31 -6.24,-40.8 4.42,-57.5 24.11,-37.8 74.9,-32.87 87.9,2.12 5.66,15.22 2.3,25.99 -0.71,40.41 2.74,-2.13 7.17,-7.91 9.6,-11.57 9.97,-15.02 13.38,-32.27 5.23,-48.98 -22.56,-46.28 -117.6,-53.61 -138.82,24.89 -1.33,4.92 -2.04,14.36 -3.2,17.59z"/>
 </g>
</svg>
