<?xml version="1.0" encoding="UTF-8"?>
<!DOCTYPE svg PUBLIC "-//W3C//DTD SVG 1.1//EN" "http://www.w3.org/Graphics/SVG/1.1/DTD/svg11.dtd">
<!-- Creator: CorelDRAW 2019 -->
<svg xmlns="http://www.w3.org/2000/svg" xml:space="preserve" width="15mm" height="15mm" version="1.1" style="shape-rendering:geometricPrecision; text-rendering:geometricPrecision; image-rendering:optimizeQuality; fill-rule:evenodd; clip-rule:evenodd"
viewBox="0 0 1500 1500"
 xmlns:xlink="http://www.w3.org/1999/xlink">
 <defs>
  <style type="text/css">
   <![CDATA[
    .str0 {stroke:black;stroke-width:20;stroke-miterlimit:22.9256}
    .str1 {stroke:red;stroke-width:20;stroke-miterlimit:22.9256}
    .fil4 {fill:none}
    .fil3 {fill:black}
    .fil0 {fill:black}
    .fil2 {fill:red}
    .fil1 {fill:white}
   ]]>
  </style>
 </defs>
 <g id="Слой_x0020_1">
  <metadata id="CorelCorpID_0Corel-Layer"/>
  <rect class="fil0 str0" x="-3.53" y="3.53" width="1500" height="1500"/>
  <g id="_-1885569336">
   <path class="fil1" d="M318.42 882.74l391.33 0c0.01,35.53 1.23,279.32 -0.54,293.27l-390.53 -0.02 -0.12 -271.66 -0.14 -21.59zm453.93 -390.38c0,54.49 2.4,110.86 3.86,165.17 0.82,30.41 4.22,50.47 -10.93,73.52 -25.86,39.35 -85.41,38.64 -111.51,-0.79 -14.33,-21.65 -11.37,-42.35 -10.47,-71.44 0.87,-27.98 1.87,-56.63 2.04,-84.21 0.17,-27.21 2.53,-55.16 1.8,-82.25 7.16,-1.62 118.05,-1.62 125.21,0zm-212.86 -0.62c-4.85,55.19 -8.71,111.58 -12.54,167.01 -2.69,38.81 0.06,75.05 -40,94.73 -30.4,14.95 -66.11,4.97 -85.05,-22.76 -0.16,-0.25 -0.4,-0.59 -0.56,-0.84l-4.54 -8.28c-11.02,-24.34 -4.06,-49.67 1.06,-76.74l4.29 -24.11c0.24,-1.51 0.4,-3.29 0.65,-4.93 5.98,-39.26 17.16,-85.91 21.54,-124.22l115.15 0.14zm328.54 241.37c-15.32,-19.57 -13.58,-46.67 -15.27,-74.27 -3.39,-55.12 -7.89,-111.98 -12.56,-167.21l114.95 -0.03c7.27,50.44 17.9,102.41 26.55,153.02 4.69,27.45 12.87,50.88 1.05,77.01 -7.94,17.54 -26.05,34.78 -51.64,38.22 -31.04,4.16 -52.11,-12.72 -63.08,-26.74zm181.9 -201.34c-2.48,-13 -5.87,-26.47 -8.02,-40.17l115.06 0c11.09,42.18 30.84,103.91 44.19,148.4 7.11,23.66 20.48,51.11 9.77,77.2 -22.06,53.71 -89.86,56.79 -119.21,12.42 -11.88,-17.95 -8.42,-30.72 -13.82,-57.61 -1.27,-6.35 -2.52,-13.05 -3.95,-19.9l-21.13 -106.41c-0.29,-1.36 -0.75,-3.22 -1.08,-4.73 -0.73,-3.42 -1.16,-5.8 -1.81,-9.2zm-712.4 -40.11c-5.61,42.74 -36.46,168.15 -39.05,198.19 -5.52,64.24 -74.08,79.6 -108.93,49.64l-11.87 -11.86c-12.35,-14.95 -15.11,-35.63 -9.58,-54.58l43.9 -156.76c1.17,-4.9 4.73,-23.58 9.12,-24.69l116.41 0.06zm890.45 229.72c11.63,17.55 73.84,29.17 84.2,-25.24 2.6,-13.63 -10.51,-41.4 -14.82,-54.28l-63.22 -180.59c-3.48,-10.13 -6.54,-16.15 -6.5,-28.36 0.05,-11.68 0.06,-23.4 0.03,-35.09 -0.03,-11.33 -1.12,-18.72 -6.25,-27.91 -7.66,-13.74 -22.06,-24.94 -44.78,-25.2 -23.32,-0.27 -46.84,0.02 -70.18,0.02 -278.75,0 -557.49,0 -836.23,0 -23.03,0 -47.36,-0.76 -70.23,0.03 -20.6,0.7 -33.92,11.06 -42.71,25.63 -8.24,13.65 -6.54,44.55 -6.04,63.91 0.43,16.86 -10.33,38.8 -15.7,54.75l-54.11 154.94c-3.18,9.05 -5.98,17.89 -9.09,26.28 -3.85,10.38 -7.5,14.4 -4.68,26.96 12.19,54.32 73.74,41.18 83.84,24.15l0.32 80.53c-0.34,79.22 1.2,163.33 0.21,241.32 -0.27,20.86 -1.77,228.14 0.96,240.75 4.15,19.15 20.39,36.18 41.55,38.31 16.06,1.62 134.43,0.25 161.27,0.2 53.38,-0.1 106.83,0.5 160.2,0.06l241.05 0.03c19.42,0.01 62.86,2.25 79.45,-0.55l0 -439.3 244.4 0.34 -0.05 439.5c31.33,-0.34 63.02,-0.16 94.36,0.01 9.34,0.05 12.87,0.06 20.87,-2.91 4.87,-1.81 12.13,-6.17 15.08,-9.23 7.02,-7.25 14.39,-15.64 16.06,-30.05 1.56,-13.52 0.41,-33.54 0.41,-47.74 0,-56.36 -1.63,-495.87 0.33,-511.27z"/>
  </g>
  <path class="fil1" d="M302.51 166.4c-16.02,3.48 -27.33,14.03 -30.54,29.77 -1.86,9.09 -1.75,49.85 0.76,58.14 3.86,12.75 16.43,24.38 28.9,26.71 11.69,2.2 628.98,0.65 729.63,0.65 16.01,0 46.41,1.69 60.67,-0.81 14.53,-2.54 26.99,-15.25 30.02,-30.03 1.89,-9.25 1.73,-49.81 -0.98,-58.13 -12.28,-37.69 -55.77,-26.34 -94.16,-27.17 -39.81,-0.86 -81.18,-0.23 -121.08,0.08 -40.3,0.32 -80.77,-0.18 -121.09,-0.16 -39.94,0.02 -80.06,0.48 -119.98,0.16 -39.91,-0.31 -81.28,-0.94 -121.09,-0.08 -39.8,0.86 -81.18,0.23 -121.08,-0.08 -16.15,-0.13 -111.94,-0.79 -119.98,0.95z"/>
  <rect class="fil2 str1" x="219.13" y="463.29" width="960.88" height="250.82"/>
  <path class="fil0" d="M208.65 429.05l999.6 0c1.12,4.71 2.86,8.85 4.71,14.25l58.58 167.31c3.99,11.93 16.13,37.66 13.73,50.29 -9.6,50.41 -67.24,39.64 -78,23.38 -0.4,3.11 -0.64,24.78 -0.77,57.31l-996.33 0 -0.23 -57.31c-9.36,15.78 -66.38,27.95 -77.67,-22.37 -2.62,-11.64 0.77,-15.35 4.33,-24.98 2.88,-7.77 5.48,-15.96 8.42,-24.35l50.14 -143.54c3.89,-11.57 10.84,-26.54 13.49,-39.99zm557.95 43.05c0,50.49 2.22,102.71 3.58,153.03 0.76,28.17 3.91,46.76 -10.13,68.11 -23.96,36.46 -79.13,35.8 -103.31,-0.73 -13.28,-20.06 -10.53,-39.24 -9.7,-66.19 0.81,-25.92 1.73,-52.46 1.89,-78.01 0.16,-25.21 2.34,-51.11 1.67,-76.21 6.63,-1.5 109.37,-1.5 116,0zm-197.21 -0.57c-4.49,51.13 -8.07,103.37 -11.62,154.73 -2.5,35.95 0.06,69.53 -37.05,87.76 -28.17,13.85 -61.26,4.61 -78.8,-21.08 -0.15,-0.24 -0.36,-0.55 -0.52,-0.78l-4.2 -7.67c-10.21,-22.55 -3.77,-46.02 0.98,-71.1l3.97 -22.34c0.21,-1.4 0.37,-3.05 0.6,-4.57 5.53,-36.37 15.9,-79.59 19.96,-115.08l106.68 0.13zm304.38 223.62c-14.19,-18.13 -12.58,-43.24 -14.14,-68.81 -3.14,-51.07 -7.31,-103.74 -11.65,-154.91l106.5 -0.03c6.75,46.73 16.59,94.88 24.61,141.77 4.34,25.43 11.92,47.14 0.97,71.34 -7.36,16.25 -24.14,32.23 -47.84,35.41 -28.76,3.86 -48.28,-11.78 -58.45,-24.77zm168.53 -186.53c-2.3,-12.05 -5.44,-24.53 -7.43,-37.22l106.6 0c10.27,39.08 28.57,96.27 40.94,137.49 6.59,21.92 18.97,47.35 9.05,71.52 -20.44,49.76 -83.25,52.61 -110.44,11.51 -11.01,-16.63 -7.8,-28.46 -12.81,-53.38 -1.17,-5.88 -2.33,-12.09 -3.66,-18.43l-19.57 -98.59c-0.27,-1.26 -0.7,-2.98 -1,-4.38 -0.68,-3.17 -1.08,-5.37 -1.68,-8.52zm-660.02 -37.17c-5.19,39.6 -33.78,155.79 -36.18,183.62 -5.11,59.53 -68.63,73.75 -100.92,45.99l-10.99 -10.99c-11.44,-13.85 -14,-33 -8.88,-50.56l40.67 -145.24c1.09,-4.54 4.39,-21.84 8.45,-22.87l107.85 0.05z"/>
  <g id="_-1885581672">
   <path class="fil3" d="M214.67 726.56c-13.54,-6.79 -7.48,-0.9 -15.18,-21.41 1.46,-20.41 2.49,-12.14 -0.19,-25.1 10.54,-5.17 22.53,1.05 26.77,13.89 4.25,12.85 -0.86,27.45 -11.4,32.62z"/>
  </g>
  <path class="fil4" d="M206.98 703.3c-3.09,1.52 -4.16,1.52 -7.49,1.85"/>
 </g>
</svg>
