<?xml version="1.0" encoding="UTF-8"?>
<!DOCTYPE svg PUBLIC "-//W3C//DTD SVG 1.1//EN" "http://www.w3.org/Graphics/SVG/1.1/DTD/svg11.dtd">
<!-- Creator: CorelDRAW 2019 -->
<svg xmlns="http://www.w3.org/2000/svg" xml:space="preserve" width="15mm" height="15mm" version="1.1" style="shape-rendering:geometricPrecision; text-rendering:geometricPrecision; image-rendering:optimizeQuality; fill-rule:evenodd; clip-rule:evenodd"
viewBox="0 0 1500 1500"
 xmlns:xlink="http://www.w3.org/1999/xlink">
 <defs>
  <style type="text/css">
   <![CDATA[
    .str0 {stroke:black;stroke-width:20;stroke-miterlimit:22.9256}
    .str1 {stroke:red;stroke-width:20;stroke-miterlimit:22.9256}
    .fil3 {fill:none}
    .fil0 {fill:black}
    .fil1 {fill:red}
    .fil2 {fill:white}
   ]]>
  </style>
 </defs>
 <g id="Слой_x0020_1">
  <metadata id="CorelCorpID_0Corel-Layer"/>
  <rect class="fil0 str0" x="-3.53" y="3.53" width="1500" height="1500"/>
  <g id="_1870875928">
   <rect class="fil1 str1" x="725.9" y="1133.95" width="45.86" height="183.41"/>
   <path class="fil2" d="M779.54 1242.02c3.23,45.69 -31.53,34.41 -37.1,20.92 -14.02,-33.96 18.59,-32.24 37.1,-20.92zm224.34 92.72c-6.19,-86.89 -2.77,-203.35 -0.99,-292.18 3.79,-189.56 164.58,-158.37 164.18,16.77 -0.35,154.05 33.81,217.22 -163.19,275.41zm-491.47 -0.24c-196.92,-55.15 -162.2,-127.68 -162.88,-269.59 -0.27,-54.63 2.22,-81.7 30.72,-117.32 51.65,-64.55 130.8,-38.63 133.55,94.98 1.62,78.35 7.14,218.94 -1.39,291.93zm265.12 -145.22c-14.45,2.77 -22.9,1.71 -33.79,-4.51 -6.01,-26.74 3.65,-35.26 30.26,-30.26 5.66,11.19 6.6,20.35 3.53,34.77zm-148.89 -385.31c42.71,-10.43 88.57,6.8 135.28,5.9 32.98,-0.64 106.26,-23.99 128.67,-1.15 41.91,42.7 -44.96,193.72 -62.75,222.41 -63.74,102.79 -76.41,99.89 -140.69,-2.55 -31.25,-49.81 -94.1,-157.6 -60.51,-224.61zm376.15 -223.85c0.63,-14.07 8.91,-38.19 12.54,-59.08 4.15,-23.84 3.34,-45.6 8.13,-68.97 23.13,19.92 22.98,32.09 11.07,71.16 -4.01,13.17 -8.85,23.17 -15.18,34.47l-16.56 22.42zm-525.55 -61.64c-9.67,-34.57 -11.75,-47.97 14.35,-65.71 -2.46,51.26 8.32,75.94 15.34,120.87l-29.69 -55.16zm53.82 -77.76c78.99,-20.66 111.18,0.24 244.52,-71.38 24.68,-13.25 44.31,-31.87 64.64,-40.95 38.65,49.46 75.25,63.22 139.25,99.24 8.75,87.4 -21.37,167.44 -57.91,226.26 -161.66,260.28 -386.81,42.72 -390.5,-213.17zm-39.57 -40.8c-18.08,34.41 -74.11,11.25 -56.89,110.44 20.45,117.82 87.01,101.08 110.15,145.46 10.25,19.65 21.77,38.19 34.75,53.96 36.9,44.84 36.46,28.88 -1.22,116.22 -138.96,6.78 -268.54,68.21 -270.95,211.05 -2.88,170.55 -25.07,263.01 156.17,326.2 132.24,46.11 448.06,46.21 580.89,1.03 77.31,-26.29 156.99,-72.24 160.67,-166.05 4.13,-104.99 12.89,-212.4 -41.7,-280 -68.72,-85.12 -211.99,-82.25 -230.4,-96.72 -15.39,-17.97 -28.53,-55.06 -28.67,-85.27 29.73,-21.2 42.27,-47.07 62.64,-81.12 26.27,-43.94 37.62,-8.68 78.48,-65.82 17.97,-25.14 36.4,-65.87 35.89,-106.49 -0.93,-73.6 -41.13,-48.4 -60.43,-82.89 0.12,-107.17 -8.84,-147.67 -64.44,-216.54 -100.66,-124.67 -304.72,-118.14 -398.04,-3.29 -56.49,69.52 -66.65,108.89 -66.9,219.83z"/>
   <path class="fil1" d="M655.83 933.15c54.61,9.35 80.19,-12.09 104.98,-49.23 13.64,35.58 53.86,63.12 102.19,47.56 7.26,-19.06 14.69,-80.22 2.12,-101.08 -22.71,-37.67 -76.19,-3.65 -107.86,36.29 -11.57,-22.78 -49.63,-63.11 -91.3,-49.47 -33.14,10.84 -17.44,97.18 -10.13,115.93z"/>
  </g>
  <ellipse class="fil3 str0" cx="757.19" cy="1171.54" rx="21.93" ry="24.8"/>
  <ellipse class="fil3 str0" cx="758.03" cy="1252.5" rx="21.93" ry="24.8"/>
 </g>
</svg>
