<?xml version="1.0" encoding="UTF-8"?>
<!DOCTYPE svg PUBLIC "-//W3C//DTD SVG 1.1//EN" "http://www.w3.org/Graphics/SVG/1.1/DTD/svg11.dtd">
<!-- Creator: CorelDRAW 2019 -->
<svg xmlns="http://www.w3.org/2000/svg" xml:space="preserve" width="15mm" height="15mm" version="1.1" style="shape-rendering:geometricPrecision; text-rendering:geometricPrecision; image-rendering:optimizeQuality; fill-rule:evenodd; clip-rule:evenodd"
viewBox="0 0 1500 1500"
 xmlns:xlink="http://www.w3.org/1999/xlink">
 <defs>
  <style type="text/css">
   <![CDATA[
    .str0 {stroke:black;stroke-width:20;stroke-miterlimit:22.9256}
    .str1 {stroke:red;stroke-width:20;stroke-miterlimit:22.9256}
    .fil0 {fill:black}
    .fil1 {fill:red}
    .fil2 {fill:white}
   ]]>
  </style>
 </defs>
 <g id="Слой_x0020_1">
  <metadata id="CorelCorpID_0Corel-Layer"/>
  <rect class="fil0 str0" x="-3.53" y="3.53" width="1500" height="1500"/>
  <rect class="fil1 str1" x="364.82" y="653.44" width="300.72" height="426.65"/>
  <path class="fil2" d="M385.65 678.85c8.97,-3.37 205.43,-1.63 242.8,-1.63 37.5,0 39.58,5.14 39.58,41.75 0,14.2 -1.01,277.7 0.32,285.28 2.01,11.51 -3.61,20.27 -13.99,23.69 -9.09,3 -205.18,1.15 -242.84,1.15 -34.73,-0.01 -40.88,-0.11 -41.14,-39.55l-0.01 -285.53c0,-14.81 4.31,-21.05 15.28,-25.16zm191.99 -404.63c8.07,-0.8 27.45,0.4 29.5,-20.28 0.77,-7.75 0.93,-42.79 -1.43,-48.28 -6.29,-14.7 -16.63,-14.35 -35.86,-14.35l-99.73 0c-19.25,0 -29.56,-0.35 -35.86,14.35 -2.21,5.16 -2.37,41.33 -1.48,48.51 2.54,20.52 21.26,19.23 29.54,20.05l0.01 200.09c-22.79,3.99 -41.94,11.25 -58.38,22.63 -15.59,10.79 -30.18,24.44 -40.38,40.65 -25.23,40.07 -28.14,77.86 -28.1,132.74l0 484.99c0,49.74 -3.79,103.97 14.02,146.79 24.72,59.45 60.02,51.74 110.65,51.74 53.55,0 107.3,0.46 160.83,0.02 48.94,-0.41 69.38,-39.19 78.67,-83.72 5.34,-25.59 4.86,-49.28 4.86,-76.19l0 -483.71c-0.01,-74.54 6.65,-140.65 -45.53,-196.35 -3.7,-3.95 -7.41,-6.38 -11.31,-9.89 -12.58,-11.33 -35.18,-22.79 -52.26,-27.52 -1.28,-0.36 -16.3,-3.64 -16.31,-3.65 -3.09,-1.95 -1.43,-13.93 -1.39,-18.17l-0.06 -180.45z"/>
  <g id="_1385890136">
   <path class="fil2" d="M1084.12 716.26c31.35,16.85 58.57,155.9 45.95,202.96 -39.33,146.64 -253.24,150.32 -295.26,-0.34 -14.99,-53.78 14.64,-165.54 41.99,-202.58l207.32 -0.04zm-223.4 -19.68c-49.08,115.17 -90.05,224.04 7.54,311.75 39.84,35.8 81.13,34.16 98.26,62.48 10.85,17.95 5.88,231.84 3.63,254.06 -28.94,12.45 -74.86,17.88 -98.77,29.41l222.44 -0.67c-21.84,-9.75 -70.76,-17.27 -98.91,-28.47 -5.66,-64.2 -0.51,-145.21 -1.15,-211.54 -0.25,-25.04 -5.56,-50.51 38.52,-68.56 167.38,-68.54 136.3,-200.44 72.1,-349.26l-243.66 0.8z"/>
   <path class="fil1" d="M1115.04 884.38c3.91,39.03 -74.08,99.54 -203.92,34.49 -21.95,-10.99 -47.84,-32.77 -63.06,-37.77 6.45,128.29 153.67,169.18 227.68,93.36 21.95,-22.49 43.24,-53.9 39.3,-90.08z"/>
  </g>
  <path class="fil0" d="M388.95 684.28c8.57,-3.28 196.61,-1.58 232.38,-1.58 35.9,0 37.88,5 37.88,40.68 0,13.8 -0.96,270.45 0.31,277.82 1.91,11.22 -3.45,19.75 -13.39,23.09 -8.69,2.92 -196.39,1.11 -232.42,1.11 -33.24,-0.01 -39.12,-0.09 -39.39,-38.52l0 -278.08c0,-14.43 4.11,-20.51 14.63,-24.52zm-35.64 -20.06l328.25 0 0 380.34 -328.25 0 0 -380.34z"/>
 </g>
</svg>
