<?xml version="1.0" encoding="UTF-8"?>
<!DOCTYPE svg PUBLIC "-//W3C//DTD SVG 1.1//EN" "http://www.w3.org/Graphics/SVG/1.1/DTD/svg11.dtd">
<!-- Creator: CorelDRAW 2019 -->
<svg xmlns="http://www.w3.org/2000/svg" xml:space="preserve" width="15mm" height="15mm" version="1.1" style="shape-rendering:geometricPrecision; text-rendering:geometricPrecision; image-rendering:optimizeQuality; fill-rule:evenodd; clip-rule:evenodd"
viewBox="0 0 1500 1500"
 xmlns:xlink="http://www.w3.org/1999/xlink">
 <defs>
  <style type="text/css">
   <![CDATA[
    .str0 {stroke:black;stroke-width:20;stroke-miterlimit:22.9256}
    .fil0 {fill:black}
    .fil2 {fill:red}
    .fil1 {fill:white}
   ]]>
  </style>
 </defs>
 <g id="Слой_x0020_1">
  <metadata id="CorelCorpID_0Corel-Layer"/>
  <rect class="fil0 str0" x="-3.53" y="3.53" width="1500" height="1500"/>
  <g id="_1306963464">
   <path class="fil1" d="M500.72 528.97l99.93 0.16c-3.23,165.63 -5.33,251.31 117.53,352.29 92.92,76.37 129.41,201.13 86.77,308.68 -11.37,28.7 -13.61,30.41 -27.39,53.37 -13.45,22.41 -35.12,50.07 -65.95,51.65 -63.55,3.26 -239.19,0.46 -313.82,0.11 -47.76,-0.22 -66.37,-36.07 -86.9,-72.45 -41.34,-73.25 -41.55,-179.15 -0.64,-254.81 21.53,-39.84 41.56,-60.61 70.62,-84.83 130.07,-108.41 117.96,-181.51 119.85,-354.17zm-21.22 -30.32c-5.32,-23.18 -2.52,-58.11 -1.82,-82.75 33.9,-0.01 117.5,-4.02 145.68,1.86l-0.11 80.89 -143.75 0zm-9.01 29.99c0,114.82 12.84,220.6 -77.78,306.67 -24.36,23.13 -33.21,21.96 -69.15,62.29 -73.54,82.55 -93.63,204.23 -52.6,309.2 0.28,0.71 0.54,1.53 0.82,2.23l5.56 11.9c25.48,51.37 53.42,104.49 123.45,104.48l298.76 0.04c33.5,0 50.2,-6.22 69.63,-24.54 16.44,-15.51 28.47,-33.26 41.32,-54.17 57.18,-93.1 52.75,-213.34 -1.72,-306.62 -31.14,-53.31 -55.72,-66.5 -95.76,-101.24 -28.38,-24.63 -60.49,-73.41 -73.77,-123.33 -14.12,-53.05 -8.55,-127.2 -8.86,-186.44 31.32,-6.84 23.19,-31.62 23.19,-76.63 0,-77.19 14.38,-66.26 -136.28,-66.3 -79.77,-0.01 -70.1,-13.07 -70.09,117.03 0,15.98 9.84,23.41 23.28,25.43z"/>
   <path class="fil1" d="M526.12 997.23c77.04,-11.11 149.96,26.67 167.62,81.88 24.47,76.54 -56.34,125.56 -116.56,132.15 -193.54,21.19 -244.9,-186.07 -51.06,-214.03zm-8 -29.09c-92.14,15.51 -166.97,84.94 -139.76,169.39 46.12,143.14 301.89,134.13 343.3,3.27 6.91,-21.82 8.37,-45.18 1.57,-67.64 -21.2,-69.95 -109.17,-121.17 -205.11,-105.02z"/>
   <path class="fil2" d="M526.99 1048.51c40.47,-8.44 90.31,6.49 106.82,33.74 25.12,41.47 -23.28,71.33 -56.99,77.62 -111.52,20.79 -169.57,-86.38 -49.83,-111.36zm-94.65 72.41c27.41,110.33 262.41,83.97 236.27,-31.98 -10.81,-47.93 -73.75,-78.69 -136.28,-71.91 -50.57,5.47 -114.78,44.34 -99.99,103.89z"/>
  </g>
  <g id="_1306975680">
   <path class="fil1" d="M1041.12 1051.32c-14.48,0.03 -40.99,-6.17 -48.81,-18.25 17,1.11 30.5,4.23 48.81,4.23 14.82,0 43.51,-4.73 47.63,-2.36 -10.49,10.33 -28.7,16.34 -47.63,16.38zm-65.92 -41.57c-4.16,-19.48 -6.11,-26.56 2.16,-44.35 7.1,-15.27 17.47,-25.58 18.02,-33.29 2.36,-32.64 -3,-72.05 0.17,-104.14l90.89 -0.01c3.44,32.05 -1.87,71.5 0.41,104.16 0.51,7.35 5.72,11.59 9.13,17.11 16.04,25.92 16.94,33.04 11.06,60.52 -10.19,0.93 -20.22,4.35 -31.03,5.98 -21.66,3.24 -48.13,3.24 -69.79,0 -10.81,-1.63 -20.84,-5.05 -31.02,-5.98zm1.34 -186.46l-0.01 97.01c0,14.53 -2.42,12.69 -8.44,22.43 -4.06,6.57 -7.54,13.32 -10.36,20.42 -6.44,16.25 -5.94,37.67 0.13,53.76 11.42,30.26 43.03,52.21 73.75,52.78 -1.1,76.21 -0.06,156.9 -0.04,233.62 -16.9,0.12 -33.86,0.08 -50.78,0.01 -25.82,-0.11 -19.45,19.13 -5.81,19.13l132.28 0c12.2,0 22.28,-18.81 -7.35,-18.79l-48.46 0.03c-2.1,-9.71 -0.89,-216.01 -0.77,-232.01 4.42,-2.92 6.56,-2.6 11.94,-3.73 1.68,-0.36 3.6,-0.79 5.84,-1.37 23.83,-6.23 45.61,-24.24 55.44,-48.68 6.42,-15.94 7.2,-37.58 1.02,-53.7 -23.46,-61.11 -18.85,17.07 -19.23,-140.91 -0.01,-10.44 -2.89,-14.12 -13.13,-14.12l-103.25 -0.01c-9.88,0.01 -12.76,3.69 -12.77,14.13z"/>
   <path class="fil2" d="M1054.72 899.72c1.88,7.65 18.64,13.67 18.56,-8.74 -0.03,-8.03 0.94,-36.61 -0.47,-42.27 -2.16,-8.67 -18.53,-13.64 -18.47,8.31 0.02,7.7 -0.91,37.47 0.38,42.7z"/>
   <path class="fil2" d="M1054.82 936.46c3.13,10.92 23.56,7.55 17.87,-11.15 -3.58,-11.78 -23.24,-7.56 -17.87,11.15z"/>
  </g>
 </g>
</svg>
