<?xml version="1.0" encoding="UTF-8"?>
<!DOCTYPE svg PUBLIC "-//W3C//DTD SVG 1.1//EN" "http://www.w3.org/Graphics/SVG/1.1/DTD/svg11.dtd">
<!-- Creator: CorelDRAW 2019 -->
<svg xmlns="http://www.w3.org/2000/svg" xml:space="preserve" width="15mm" height="15mm" version="1.1" style="shape-rendering:geometricPrecision; text-rendering:geometricPrecision; image-rendering:optimizeQuality; fill-rule:evenodd; clip-rule:evenodd"
viewBox="0 0 1500 1500"
 xmlns:xlink="http://www.w3.org/1999/xlink">
 <defs>
  <style type="text/css">
   <![CDATA[
    .str0 {stroke:black;stroke-width:20;stroke-miterlimit:22.9256}
    .fil3 {fill:none}
    .fil0 {fill:black}
    .fil2 {fill:red}
    .fil1 {fill:white}
   ]]>
  </style>
 </defs>
 <g id="Слой_x0020_1">
  <metadata id="CorelCorpID_0Corel-Layer"/>
  <rect class="fil0 str0" x="-3.53" y="3.53" width="1500" height="1500"/>
  <g id="_1859747096">
   <path class="fil1" d="M353.91 1190.65l289.28 151.65c86.2,-99.93 129.81,-158.31 205.46,-267.62 17.71,-25.6 29.26,-49.41 47.2,-74.84 30.53,-43.29 139.85,-232 157.11,-279.4 8.26,-22.68 12.43,-15.58 4.55,-31.66 -16.85,2.53 -16.2,10.3 -27.06,31.74l-176.35 307.06c-62.39,101.72 -141.97,201.44 -218.55,290.23l-257.14 -134.8c14.73,-56.75 30.88,-112.77 49.63,-170.07l64.65 -174.75c53.43,-115.26 62.03,-147.81 126.85,-271.45 7.73,-14.75 15.37,-29.59 23.27,-44.23 11.56,-21.41 20.6,-28.7 12.92,-44.36 -18.88,2.84 -14.07,10.04 -27.15,31.42 -49.96,81.65 -36.05,70.5 -71.41,137.12 -58.44,110.08 -145.25,331.87 -179.64,455.95 -7.37,26.57 -14.31,65.98 -23.62,88.01z"/>
   <path class="fil1" d="M948.98 211.88l160.71 84.26 -8.43 16.07 -32.14 -16.85 -8.42 16.07 32.14 16.85 -8.43 16.07 -32.14 -16.85 -8.42 16.07 32.14 16.85 -8.43 16.07 -32.14 -16.85 -8.42 16.07 32.14 16.85 -8.43 16.07 -32.14 -16.85 -8.42 16.07 32.14 16.85c-11.37,21.69 -11.41,14.53 -1.19,30.62 19.86,31.23 25.53,35 27.66,82.09 0.98,21.76 -0.39,38.29 -2.82,61.37l-3.83 61.68 -385.7 -202.2 97.17 -76.25c85.8,-49.38 84.6,3.08 108,-41.56l32.14 16.85 8.43 -16.07 -32.15 -16.85 8.43 -16.07 32.14 16.85 8.43 -16.07 -32.15 -16.85 8.43 -16.07 32.14 16.85 8.43 -16.07 -32.15 -16.85 8.43 -16.07 32.14 16.85 8.43 -16.07 -32.15 -16.85 8.43 -16.08zm-87.68 128.18c-66.84,-17.35 -136.67,55.46 -169.36,81.82 -46.35,37.38 -37.04,1.12 -56.1,35.6l449.99 235.9 8.42 -16.07c-16.08,-14.8 -10.48,-36.11 -9.04,-57.66 3.12,-46.71 12.22,-77.65 -2.07,-123.69 -3.39,-10.94 -4.89,-16.43 -9.58,-27.25 -6.43,-14.83 -5.62,-18.79 -19.41,-27.55l80.04 -152.67 -192.86 -101.1 -80.03 152.67z"/>
   <path class="fil2" d="M975.01 758.21c7.1,-13.55 2.71,-14.95 12.83,-34.25 -17.5,-7.39 -16.84,-6.18 -26.84,10.9 -21.11,36.05 -85.06,159.64 -103.58,184.91 -12.9,17.61 -35.4,53.46 -45.14,70.7 -27.12,48.02 -96.04,143.11 -132.33,189.67 -3.27,4.2 -84.48,97.73 -34.73,74.26 31.98,-15.09 224.27,-313.67 249.84,-353.98l60.34 -109.83c10.59,-23.31 11.25,-16.44 19.61,-32.38z"/>
   <path class="fil1" d="M620.09 643.85c-24.53,46.79 -41.76,83.95 -63.21,130.84l-96.91 248.45c-8.28,24.56 -12.28,39.83 -20.05,63.38 -3.36,10.2 -5.23,16.76 -9.24,29.77 -6.56,21.29 -10.17,16.28 -2.89,31.14 23.07,5.21 15.32,1.6 31.91,-53.64 26.64,-88.72 52.38,-144.42 80.38,-223.35 23.65,-66.68 111.58,-247.74 142.41,-306.55l-16.07 -8.43 -46.33 88.39z"/>
   <path class="fil1" d="M733.04 467.46c11.86,6.22 17.2,-2.02 24.35,-8.12l72.31 -59.01c8.05,-15.36 2,-0.82 2.3,-14.16 -10.95,-2.47 -12.9,-2.17 -30.62,9.56l-53.72 43.66c-6.24,4.74 -28.69,20.69 -14.62,28.07z"/>
   <path class="fil2" d="M1026.34 621.22c13.16,-9.81 12.71,-35.25 15.28,-65.25 4.04,-47.25 5.03,-51.58 -14.85,-62.58 -7.45,17.61 -4.44,44.31 -6.74,65.95 -1.26,11.86 -2.32,21.18 -3.6,31.37 -2.56,20.42 -8.28,18.96 9.91,30.51z"/>
   <g>
    <path class="fil1" d="M196.76 668.49c-42.85,120.82 -17.4,300.85 59.68,404.43l-9.31 10.3c-82.18,-109.48 -108.13,-293.53 -62.45,-421.56l12.08 6.83z"/>
   </g>
   <path class="fil3" d="M190.72 665.08c-54.21,95.97 2.4,360.03 61.07,412.99"/>
   <g>
    <path class="fil1" d="M341.85 616.35c-82.2,200.71 -19.08,191.32 0.31,345.98l-19.15 -2.89 -2.14 -12.83c-37.93,-156.44 -66.33,-167.91 3.82,-339.26l17.16 9z"/>
   </g>
   <path class="fil3" d="M333.27 611.85c-91.89,175.29 4.06,317.57 -0.68,349.04"/>
   <g>
    <path class="fil1" d="M1167.62 418.92c60.92,68.84 47.93,108.93 33.75,198.8l-18.33 -2.76c12.88,-81.62 27.09,-120.23 -28.02,-182.44l12.6 -13.6z"/>
   </g>
   <path class="fil3" d="M1161.32 425.72c60.33,55.91 40.88,124.36 30.89,190.62"/>
   <g>
    <path class="fil1" d="M1283.1 315.33c124.19,159.34 111.26,194.19 58.82,397l-15.96 -4.79c50.95,-196.86 64.54,-227.35 -55.6,-381.47l12.74 -10.74z"/>
   </g>
   <path class="fil3" d="M1276.73 320.7c117.17,139.08 111.78,207.04 57.21,389.23"/>
  </g>
 </g>
</svg>
