<?xml version="1.0" encoding="UTF-8"?>
<!DOCTYPE svg PUBLIC "-//W3C//DTD SVG 1.1//EN" "http://www.w3.org/Graphics/SVG/1.1/DTD/svg11.dtd">
<!-- Creator: CorelDRAW 2019 -->
<svg xmlns="http://www.w3.org/2000/svg" xml:space="preserve" width="15mm" height="15mm" version="1.1" style="shape-rendering:geometricPrecision; text-rendering:geometricPrecision; image-rendering:optimizeQuality; fill-rule:evenodd; clip-rule:evenodd"
viewBox="0 0 1500 1500"
 xmlns:xlink="http://www.w3.org/1999/xlink">
 <defs>
  <style type="text/css">
   <![CDATA[
    .str0 {stroke:black;stroke-width:20;stroke-miterlimit:22.9256}
    .fil0 {fill:black}
    .fil2 {fill:red}
    .fil1 {fill:white}
   ]]>
  </style>
 </defs>
 <g id="Слой_x0020_1">
  <metadata id="CorelCorpID_0Corel-Layer"/>
  <rect class="fil0 str0" x="-3.53" y="3.53" width="1500" height="1500"/>
  <g id="_1311784248">
   <path class="fil1" d="M522.17 614.9c7.69,-3.68 54.99,0.75 68.83,-1.35 7.18,-1.08 160.94,-1.38 168.92,-0.28 11.07,1.51 62.97,-1 68.44,0.9 4.04,1.4 0.47,4.79 -2.7,10.26 -2.08,3.57 -3.92,7.23 -6.04,11.03l-36.68 66.68c-70.83,0 -139.49,-0.95 -209.56,-0.95l-39.65 -64.66c-2.27,-3.76 -4.13,-6.76 -6.41,-10.65 -1.29,-2.19 -1.83,-3.45 -3.09,-5.48 -0.6,-0.96 -1.25,-1.65 -1.8,-2.98 -0.84,-2.06 0.01,-1.92 -0.26,-2.52zm446.63 87.24l-104.31 0c-8.62,0 -13.35,-0.95 -21.81,-0.95 1.34,-5.76 13.08,-25.52 17.06,-33.2l27.76 -49.05c3.38,-5.92 7.27,-5.02 19.66,-4.99 6.76,0.02 10.8,-0.66 16.12,-0.95 10.69,-0.58 23.24,0.01 34.14,0.01 22.76,0 45.51,0 68.27,0 -0.68,2.94 -4.46,8.4 -6.45,11.56l-42.09 66.96c-1.6,2.54 -5.23,10.61 -8.35,10.61zm-115.69 -124.22c-124.93,0 -247.36,0.95 -372.66,0.95 -2.39,3.57 -5.8,7.13 -7.03,11.93 -1.27,4.92 -1.5,14.62 -1.5,20.31 0,1.78 6.92,11.33 8.34,13.46l95.58 144.33c9.12,13.68 27.55,40.1 34.82,52.42 7.42,12.56 25.74,38.88 34.79,52.45l95.58 144.33c2.05,3.07 7.78,10.25 7.78,14.03l0 280.68c-19.63,0 -142.66,-1.2 -155.01,1.45 -16.1,3.46 -21.91,20.26 -15.54,33.5 1.42,2.96 10.51,14.36 14.08,14.36l333.79 0c10.25,0 21.88,-0.55 30.91,-2.27 8.33,-1.6 15.55,-9.7 15.55,-18.59 0,-30.69 -13.14,-25.26 -29.34,-26.6 -32.73,-2.71 -113.06,-2.8 -143.24,-2.8 0,-93.6 -0.95,-184.22 -0.95,-277.83 0,-4.84 31.13,-48.76 34.32,-53.87 11.45,-18.3 23.17,-35.21 35.09,-53.1l122.71 -185.47c6.16,-9.25 11.53,-17.78 17.63,-26.93l51.98 -79.83c2.91,-4.39 16.11,-24.4 16.11,-28.46 0,-8.22 -1.65,-14.61 -6.05,-20.5 -4.21,-5.65 -8.54,-5.97 -17.67,-6.04l-22.75 -0.96c-8.25,0 -17.18,0.24 -23.96,-0.69 -11.81,-1.62 -35.05,-0.26 -48.1,-0.26 -15.8,0 -30.6,-0.95 -47.41,-0.95 11.37,-21.49 28.53,-49.18 38.88,-69.21 4.18,-8.11 8.99,-15.63 13.27,-23.72 5.75,0 6.9,-0.91 12.29,-0.98l99.6 0.04c19.52,0 36,-1.02 55,-0.95 17.12,0.06 34.14,-2.24 34.14,-22.76 0,-26.39 -22.86,-26.55 -44.57,-26.55l-155.51 0c-32.01,0 -31.62,4.44 -47.82,31.84 -2.15,3.63 -3.9,6.54 -5.91,10.21 -3.9,7.14 -7.77,13.84 -11.65,20.58l-22.82 40.72c-1.86,3.61 -3.68,6.84 -5.73,10.39l-17.02 31.34z"/>
   <polygon class="fil2 str0" points="621.24,734.8 774.33,972.96 945.08,732.97 "/>
   <path class="fil1" d="M325.89 604.47c0,56.46 25.12,104.02 68.81,136.96 16.34,12.31 46.45,27.49 71.09,31.32l35.1 2.03c8.48,-1.32 43.09,3.3 43.09,-22.38 0,-29.61 -36.87,-16.94 -76.42,-23.14 -20,-3.14 -37.81,-14.68 -53.1,-26.56 -2.49,-1.93 -8.32,-7.28 -10.28,-9.63 -6.21,-7.43 -11.83,-12.26 -17.57,-22.26 -51.93,-90.45 14.02,-195.3 108.07,-195.3 24.42,0 41.12,3.77 59.25,12.81 7.95,3.96 13.62,7.98 20.27,12.92 1.92,1.42 2.87,2.23 4.63,3.9 9.99,9.53 9.52,7.01 20.29,21.44 18.78,25.14 19.5,44.1 43.07,38.65 9.57,-2.21 13.69,-12.94 13.69,-20.5 0,-16.2 -25.82,-49.99 -37.7,-61.87 -28.77,-28.77 -73.87,-50.02 -115.92,-50.02l-9.93 0c-14.89,0.05 -21.83,0.65 -41.09,5.88 -42.72,11.61 -89.51,48.2 -107.89,89.34 -6.52,14.59 -9.92,22.1 -13.44,38.71 -2.41,11.36 -4.02,24.33 -4.02,37.7z"/>
   <polygon class="fil1 str0" points="963.11,484.04 1094.17,482.82 1153.15,478.65 1162.46,469.09 1164.14,459.39 1162.2,447.9 1157.86,441.22 1149.22,435.93 1135.57,433.27 1104.56,432.84 942.88,434.49 931.21,441.24 904.57,485.21 782.94,702.14 719.76,823.72 779.75,823.72 842.68,701.19 857.12,672.84 873.62,643.47 895.34,602.79 915.38,568.81 953.21,501.54 "/>
   <g>
    <path class="fil1" d="M615.64 157.5c0,24.13 17.89,40.79 37.94,40.79 18.11,0 29.44,-0.98 41.33,-17.47 8.38,-11.62 11.3,-23 16.92,-32.4 6.98,-11.68 10.93,-19.55 22.65,-26.68 28.01,-17.01 80.37,-12.71 95.35,18.86 9.75,20.55 7.83,44.43 -6.59,62.31 -13.48,16.71 -30.07,29.55 -47.58,42.53 -4.71,3.49 -7.99,6.54 -12.6,10.16 -23.04,18.11 -39.56,40.2 -42.03,70.91 -0.8,9.89 4.49,25.3 11.49,32.8 18.35,19.65 51.7,16.96 64.71,-0.29 18.53,-24.58 2.24,-34.06 48.9,-66.82 26.77,-18.81 41.5,-29.02 63.3,-53.37 7.47,-8.34 12.9,-18.45 17.96,-28.52 15.8,-31.38 9.39,-79.65 -9.18,-107.82 -9.97,-15.14 -16.37,-21.48 -31.02,-32.53 -24.63,-18.56 -68.14,-32.92 -111.26,-32.92 -26.12,0 -44.84,1.8 -69.78,11.79 -7.9,3.16 -15.76,6.39 -22.64,10.56l-15.02 9.63c-1.92,1.43 -3.1,2.04 -5.04,3.5 -1.88,1.42 -2.36,2.17 -4.05,3.54 -2.06,1.67 -2.61,1.85 -4.66,3.88 -3.07,3.05 -5.43,5.5 -8.52,8.56 -16.3,16.15 -30.58,42.75 -30.58,69z"/>
    <path class="fil1" d="M712.38 463.87l0 8.54c0,25.82 25.22,50.27 51.22,50.27 24.76,0 44.08,-12.45 52.32,-33.05 2.32,-5.79 5.01,-15.15 4.49,-21.8 -3.92,-49.89 -58.57,-68.66 -90.73,-38.83 -7.42,6.88 -17.3,21.14 -17.3,34.87z"/>
   </g>
  </g>
 </g>
</svg>
