<?xml version="1.0" encoding="UTF-8"?>
<!DOCTYPE svg PUBLIC "-//W3C//DTD SVG 1.1//EN" "http://www.w3.org/Graphics/SVG/1.1/DTD/svg11.dtd">
<!-- Creator: CorelDRAW 2019 -->
<svg xmlns="http://www.w3.org/2000/svg" xml:space="preserve" width="15mm" height="15mm" version="1.1" style="shape-rendering:geometricPrecision; text-rendering:geometricPrecision; image-rendering:optimizeQuality; fill-rule:evenodd; clip-rule:evenodd"
viewBox="0 0 1500 1500"
 xmlns:xlink="http://www.w3.org/1999/xlink">
 <defs>
  <style type="text/css">
   <![CDATA[
    .str0 {stroke:black;stroke-width:20;stroke-miterlimit:22.9256}
    .fil0 {fill:black}
    .fil2 {fill:red}
    .fil1 {fill:white}
   ]]>
  </style>
 </defs>
 <g id="Слой_x0020_1">
  <metadata id="CorelCorpID_0Corel-Layer"/>
  <rect class="fil0 str0" x="-3.53" y="3.53" width="1500" height="1500"/>
  <g id="_1361637424">
   <path class="fil1" d="M1025.32 1066.62c33.23,-68.6 17.09,-46.46 32.95,-86.83 73.29,15.86 21.94,83.85 -32.95,86.83zm-381.97 -104.57l377.93 -0.55c8.11,118.4 -172.79,249.97 -320.31,124.09 -18.77,-16.01 -61.48,-80.54 -57.62,-123.54zm325.79 -323.72c-6.8,13.5 -2.64,10.51 -25.92,11.24l-223.61 -0.05c-20.03,-1.58 -15.89,2.49 -21.31,-11.19 -8.85,-7.88 -5.75,-3.95 -6.29,-21.33 -0.22,-7.12 0.31,-16.16 0.33,-23.56 0.06,-17.01 -0.89,-32.51 1.67,-51.13l280.96 1.58 0.44 82.02c-2.45,20.95 -0.46,7.36 -6.27,12.42zm140.59 -6.08c-45.25,0 -45.74,-35.96 -0.29,-35.96l111.63 0c43.02,0 40.97,35.96 0,35.96l-111.34 0zm-829.81 582.65c-8.78,-7.28 -5.5,-30.82 -3.41,-44.46l93.86 -2.76c14.04,-10.56 12.43,-7.78 7.51,-27.95 -23.43,-6.28 -69.5,-3.59 -98.36,-3.6 -5.79,-4.76 -3.51,4.69 -4.98,-13.82 -0.61,-7.68 0.91,-14.19 2.09,-21.34l92.76 -1.54c17.29,-8.95 12.5,-13.06 8.36,-29.28 -22.78,-6.14 -70.46,-3.65 -98.76,-3.44 -4.35,-7.55 -2.88,9.87 -4.47,-13.95 -0.5,-7.64 0.89,-14.3 1.99,-21.49l93.14 -3.12c5.53,-3.67 15.08,-4.52 10.01,-19.66 -3.89,-11.63 -11.38,-11.05 -25.63,-11.77 -23.01,-1.17 -50.83,0.38 -74.51,0.25 -5.81,-4.79 -3.48,4.63 -4.97,-13.81 -0.6,-7.44 0.89,-14.47 1.96,-21.47l93.86 -2.76c14.04,-10.56 12.43,-7.78 7.51,-27.95 -29.23,-7.84 -68.42,-0.05 -101.33,-5.36 0,-198.79 1.33,-398.04 -0.09,-596.77 -0.49,-67.95 18.09,-63.03 81.76,-62.9l751.57 -0.02c66.94,-0.32 72.93,5.14 72.59,72.3 -1.08,209.4 49.1,171.65 -281.4,171.65 -99.69,0 -202.45,-2.47 -301.75,-0.11 -103.6,2.46 -78.69,100.88 -78.69,218.19 0,467 -34.47,442.31 162.41,442.31l450.21 -0.19c65.3,1.11 57.85,60.94 20.25,69.6 -25.84,5.95 -695.49,1.47 -823.29,1.5 -29.53,0.01 -43.69,-2.4 -50.2,-26.28zm-37.66 -930.56l0 938.17c24.96,41.91 6.16,25.72 55.54,52.84l865.55 0c25.23,-15.3 48.1,-23.69 52.03,-61.22 12.2,-116.53 -159.82,-69 -257.75,-79.2 8.68,-8.76 6.28,-4.91 14.38,-11.1 36.6,-27.96 7.62,-20.89 58.89,-23.32 41.74,-1.98 58.04,-17.39 75.92,-41.53 27.72,-37.43 32.5,-87.6 -22.27,-106.51 -42.34,-14.62 -11.42,-4.57 -34,-24.33 -50.84,-2.72 -418.1,-6.45 -437.18,4.11 -17.62,31.92 8.43,95.3 22.23,121.33 9.82,18.52 18.7,31.05 33.68,45.29l40.25 36.06c-30.38,3.24 -74.18,1.8 -105.73,1.45 -41.77,-0.46 -49.37,-14.97 -49.27,-55.64l0.15 -427c0,-113.42 -10.15,-108.9 103.55,-109.81 7.69,56.53 -17.28,129.43 42.89,137.59l64.18 1.77 2.28 24c4.26,8.32 7.5,17.9 22.65,8.27 11.27,-7.16 7.68,-15.37 10.59,-32.1l65.95 -0.04c2.15,13.26 -0.42,22.25 7.67,30.2 13.26,13.03 20.05,3.32 25.35,-6.43l3.07 -24.76 63.26 -0.97c29.59,-4.39 35.3,-18.85 42.48,-49.99l36.64 -0.19c22.4,47.17 58.32,34.67 120.16,34.67 21.28,0 57.13,2.08 76.7,-1.06 27.45,-4.4 32.05,-18.85 43.91,-36.16l0 -28.73c-33.48,-47.59 -37.84,-37.68 -120.61,-37.68 -59.21,0 -99.73,-11.71 -119.85,35.28l-37.82 -0.24 1.56 -53.34c110.77,0 205.4,25.09 207.31,-80.25 0.86,-47.42 0.29,-96.65 0,-144.19 -0.37,-60.58 -14.22,-64.09 -53.22,-87.98l-868.17 0 -10.03 5.59c-2.93,1.52 -7.63,3.46 -9.78,4.74 -20.12,11.95 -22.96,24.69 -33.14,42.41z"/>
   <path class="fil2" d="M597.49 338.28c65.66,-16.84 88.12,84.92 23.25,100.35 -65.87,15.67 -97.08,-81.42 -23.25,-100.35zm-10.13 -33.27c-112.85,27.66 -71.4,194.53 43.4,166.79 104.21,-25.18 71.21,-194.89 -43.4,-166.79z"/>
   <path class="fil2" d="M388.92 338.28c65.4,-16.68 87.98,84.78 23.08,100.35 -65.56,15.74 -97.73,-81.32 -23.08,-100.35zm-10.31 -33.27c-112.88,27.48 -70.95,194.49 43.39,166.79 104.14,-25.23 71.38,-194.74 -43.39,-166.79z"/>
   <path class="fil1" d="M898.75 799.95c15.59,-45.1 -15.25,-58.86 -28,-37.63 -7.67,12.78 -6.51,54.13 28,37.63z"/>
   <path class="fil1" d="M868.53 867.13l0 4.64c0,32.26 49.8,31.06 30.22,-25.6 -21.45,-10.61 -30.22,-3.36 -30.22,20.96z"/>
   <path class="fil1" d="M764.84 778.99l2.82 21.14c37.91,17.3 34.69,-22.35 25.63,-43.26 -20.06,-3.84 -32.72,-2.59 -28.45,22.12z"/>
   <path class="fil1" d="M793.29 889.25c3.68,-8.49 8.73,-21.77 4.61,-34.94 -2.51,-8 -11.13,-18.1 -23.33,-11.74 -9.21,4.8 -28.33,55.82 18.72,46.68z"/>
  </g>
 </g>
</svg>
