<?xml version="1.0" encoding="UTF-8"?>
<!DOCTYPE svg PUBLIC "-//W3C//DTD SVG 1.1//EN" "http://www.w3.org/Graphics/SVG/1.1/DTD/svg11.dtd">
<!-- Creator: CorelDRAW 2019 -->
<svg xmlns="http://www.w3.org/2000/svg" xml:space="preserve" width="15mm" height="15mm" version="1.1" style="shape-rendering:geometricPrecision; text-rendering:geometricPrecision; image-rendering:optimizeQuality; fill-rule:evenodd; clip-rule:evenodd"
viewBox="0 0 1500 1500"
 xmlns:xlink="http://www.w3.org/1999/xlink">
 <defs>
  <style type="text/css">
   <![CDATA[
    .str0 {stroke:black;stroke-width:20;stroke-miterlimit:22.9256}
    .fil0 {fill:black}
    .fil2 {fill:red}
    .fil1 {fill:white}
   ]]>
  </style>
 </defs>
 <g id="Слой_x0020_1">
  <metadata id="CorelCorpID_0Corel-Layer"/>
  <rect class="fil0 str0" x="-3.53" y="3.53" width="1500" height="1500"/>
  <path class="fil1" d="M458.28 924.28l362.34 0c-0.16,6.81 -51.85,192.97 -59.98,209.9 6.68,3.21 17.42,6.49 26.04,8.95 8.97,2.55 22.42,5.42 28.94,8.55 2.83,-5.92 5.8,-18.99 8.04,-26.95l49.12 -170.78c2.47,-7.73 7.15,-21.77 7.81,-29.67l162.42 0c0,60.54 -17.85,191.54 -19.99,259.88 -0.77,24.6 -4.19,79.88 -18.09,96.85 -6.84,8.35 -24.88,18.1 -39.38,18.1l-424.81 0c-19.01,0 -29.61,-5.62 -39.48,-15.5 -13.24,-13.25 -13.45,-18.44 -15.95,-41.52 -11.17,-103.15 -14.44,-219.64 -27.03,-317.81zm589.73 -54.97l-149.93 0c0.79,-9.46 3.84,-17.08 6.42,-26.07l101.32 -353.46c4.21,-14.43 13.4,-39.66 14.7,-55.27l62.47 0c0,16.44 -1.18,37.86 -3.55,53.91 -2.73,18.49 -2.37,36.84 -4.34,55.64l-13.54 161.38c-2.76,18.64 -1.8,36.87 -4.25,55.72l-9.3 108.15zm-629.71 -434.8l544.75 0 -14.99 54.97c-5.18,18.53 -10.31,34.88 -15.87,54.11 -10.79,37.36 -20.79,72.54 -31.32,108.61l-62.76 217.11 -319.86 0c-16.76,0 -36.48,1.02 -52.79,0.31 -13.1,-0.57 -12.68,1.27 -14.65,-40.32l-15.18 -197.22c-1,-13.18 -3.67,-34.63 -4.67,-47.81 -1.89,-24.85 -9.34,-142.33 -12.66,-149.76zm-42.48 144.93c-90.04,-7.49 -159.93,-82.51 -159.93,-172.42 0,-160.07 194.24,-222.45 288.03,-128.1 13.51,13.58 25.45,24.79 35.15,42.31 7.74,13.97 18.73,38.65 19.17,58.3l-199.91 0 12.57 149.86c0.79,14.35 3.75,36.02 4.92,50.05zm659.7 -394.82l-54.98 194.91 -367.33 0c0,-56.32 -35.42,-103.77 -70.57,-139.33 -99.09,-100.25 -291.15,-76.42 -360.93,72.66 -39.11,83.57 -19.8,188.89 43.52,252.25 38.01,38.04 97.43,69.3 155.59,69.3 0,31.78 20.95,277.9 24.3,303.05 2.29,17.18 2.04,34.36 3.35,51.63l9.14 100.8c6.23,47.67 6.41,159.87 21.68,198.22 14.87,37.32 54.21,65.97 98.96,65.97l429.8 0c53.04,0 103.58,-48.94 104.95,-109.94l19.3 -230.59c1.37,-10.41 2.4,-26.03 3.04,-34.44l27.25 -332.58c1.17,-11.01 2.06,-23.56 2.72,-32.27 0.94,-12.36 2.17,-22.47 2.64,-32.34 1.13,-23.74 4.47,-45.32 5.02,-67.45 1.11,-44.53 10,-88.03 10,-134.94l-104.95 0 39.47 -140.44c4.22,-11.1 12.26,-10.04 24.48,-13l174.49 -42.91c21.59,-4.7 37.88,-8.92 58.41,-14.06 14.88,-3.71 45.34,-13.23 60.48,-14.49 -6.63,-13.82 -8.36,-41.14 -14.99,-54.97 -57.42,13.38 -114.27,28.54 -171.91,42.99 -28.25,7.08 -56.93,13.59 -86.48,20.98l-86.45 20.99z"/>
  <polygon class="fil2 str0" points="728.89,1240.92 790.21,1260.43 856.85,1030.87 889.36,916.37 945.88,719.22 1082.34,242.44 1206.97,204 1436.91,148.23 1420.19,86.9 1035.51,181.67 935.64,529.93 "/>
  <rect class="fil1 str0" x="340.7" y="377" width="815.81" height="59.53"/>
  <rect class="fil1 str0" x="340.7" y="377" width="815.81" height="59.53"/>
 </g>
</svg>
