<?xml version="1.0" encoding="UTF-8"?>
<!DOCTYPE svg PUBLIC "-//W3C//DTD SVG 1.1//EN" "http://www.w3.org/Graphics/SVG/1.1/DTD/svg11.dtd">
<!-- Creator: CorelDRAW 2019 -->
<svg xmlns="http://www.w3.org/2000/svg" xml:space="preserve" width="15mm" height="15mm" version="1.1" style="shape-rendering:geometricPrecision; text-rendering:geometricPrecision; image-rendering:optimizeQuality; fill-rule:evenodd; clip-rule:evenodd"
viewBox="0 0 1500 1500"
 xmlns:xlink="http://www.w3.org/1999/xlink">
 <defs>
  <style type="text/css">
   <![CDATA[
    .str0 {stroke:black;stroke-width:20;stroke-miterlimit:22.9256}
    .fil0 {fill:black}
    .fil1 {fill:red}
    .fil2 {fill:white}
   ]]>
  </style>
 </defs>
 <g id="Слой_x0020_1">
  <metadata id="CorelCorpID_0Corel-Layer"/>
  <rect class="fil0 str0" x="-3.53" y="3.53" width="1500" height="1500"/>
  <g id="_1362913032">
   <ellipse class="fil1" cx="724.41" cy="729.32" rx="70.28" ry="50.43"/>
   <path class="fil2" d="M400.28 1181.05l651.04 0.05 0.1 64.63 -651.14 0.41 0 -65.09zm-0.02 -58.18l0.09 -333.02c25.64,-0.2 238.31,-2.62 254.35,1.55 25.16,6.55 29.27,19.94 71.12,19.91 38.76,-0.03 42.65,-10.29 68.43,-18.92 18.11,-6.07 228.95,-2.64 257.3,-2.55l-0.14 347.45 -651.1 0.19 -0.05 -14.61zm308.67 -439.86c74.31,-16.2 118.53,60.74 39.1,81.95 -75.17,20.06 -130.84,-61.95 -39.1,-81.95zm-68.98 -305.68l172.72 1.54 -0.47 41.63 -172.76 0.17 0.51 -43.34zm37.59 -78.44c3.74,-10.2 1.22,-3.57 3.99,-8.42l91.91 0.6 7.79 42.59 -110.78 0.03 7.09 -34.8zm-65.65 162.78c10.34,5.08 6.78,12.62 6.74,26.25 -0.03,10.87 3.07,22.57 -6.51,26.58 -29.15,4.51 -67.16,17.26 -96.45,25.36 -33.98,9.38 -71.6,10.82 -52.71,51.63 37.96,10.92 136.72,-38.08 185.22,-41.11 26.59,-1.67 90.87,12.11 98.31,-16.12 10.22,-38.72 -57.81,-27.55 -83.49,-27.5 -6.69,-11.01 -3.99,-32.25 -2.41,-44.52l131.34 0.87 1.34 71.54c6.03,17.76 47.32,28.99 76.97,41.46 83.48,35.08 192.3,60.01 180.11,169.41l-217.64 0.09c2.16,-42.5 -3.79,-62.2 -28.15,-81.76 -44.82,-35.98 -115.83,-35.88 -159.65,1.61 -22.21,18.99 -28.43,40.84 -25.78,80.06l-217.94 0.09c-1.72,-18.84 1.54,-36.5 -3.36,-52.07 -56.96,-29.33 -41.17,68.49 -41.17,111.86 0,84.84 -7.45,450.65 6.64,480.45 35.35,10.37 707.66,7.12 720.64,-0.3 16.2,-10.33 11.16,-30.85 11.11,-55.62l-0.01 -457.76c0.02,-218.08 -129.58,-180.04 -260.59,-259.78l0.43 -46.62c26.13,-17.9 21.2,-6.5 21.37,-70.14 0.09,-37.34 8.76,-60.47 -30.53,-62.13 -14.24,-101.58 -6.88,-91.66 -155.56,-86.79 -34.36,1.13 -35.24,25.32 -44.26,86.67 -38.25,2.16 -30.57,21.95 -30.46,58.56 0.09,27.89 -7.99,61.67 16.45,69.73z"/>
   <path class="fil2" d="M549.51 937.57c-10.16,8.2 -31.57,5.99 -51.96,4.04 -1.94,-38.75 -4.53,-39.07 6.77,-43.26 14.72,-0.07 38.9,-3.79 50.04,4.73 13.84,10.58 11.3,28.98 -4.85,34.49zm19.97 130.72c42.41,11.43 38.85,-19.44 36.99,-56.16 -1.07,-21.11 -5.51,-22.04 -12.69,-38.27 -8.19,-18.5 38.58,-61.31 -7.71,-102.52 -19.8,-17.63 -49.45,-16.5 -81.79,-16.68 -62.2,-0.34 -49.9,-2.87 -49.92,146.39 0,25.14 -8.86,76.99 26.93,69.83 26.77,-5.35 16.54,-61.31 16.62,-84.37 93.97,-13.88 50.56,38.22 71.57,81.78z"/>
   <path class="fil2" d="M882.41 1068.18c14.77,-32.08 3.78,-88.35 7.15,-128.9 32.72,35.14 32.33,29.62 63.83,0.05 1.19,24.41 -5.31,110.51 5.24,124.53 12.23,16.27 35.09,7.79 38.35,-12.33 2.13,-13.14 1.7,-178.4 -2.61,-186.08 -20.38,-36.32 -52.8,21.85 -72.89,39.87 -22.15,-17.34 -30.24,-54.73 -67.18,-48.05 -17.92,21.32 -9.08,86.08 -9.08,121.63 0,43.55 -14.54,103.84 37.19,89.28z"/>
   <g>
    <path class="fil2" d="M752.61 914.27c4.96,11.32 5.88,26.49 5.84,38.71 -0.1,29.29 6.81,65.64 -22.64,73.62 -38.36,10.39 -42.71,-25.45 -42.54,-55.02 0.13,-21.83 -2.61,-41.67 3.99,-55.44 -0.56,-1.24 -1.05,-2.58 -1.47,-4.04 -3.09,-2.31 -5.91,-5.1 -8.38,-8.4 -7.03,-4.76 -15.44,-7.46 -22.82,-2.29 -3.42,2.4 -6.71,4.26 -9.85,5.66 -9.19,27.45 -8.36,62.42 -4.45,97.67 9.8,88.38 177.01,119.39 150.87,-83.53 -0.53,-4.15 -1.42,-8.2 -2.62,-12.14 -6.03,-2.32 -10.46,-5.79 -11.81,-6.28l-14.46 -3.45 0.06 -0.06 14.03 3.32 -16.25 -0.89c-4.95,5.12 -10.95,9.37 -17.5,12.56zm-69.9 -18.36c-2.93,1.28 -6.24,2.33 -10.11,2.44l10.11 -2.44z"/>
   </g>
   <path class="fil1" d="M405.92 609.15c-32.47,13.16 -10.48,49.97 15,39.23 23.52,-9.91 9.12,-49 -15,-39.23z"/>
  </g>
 </g>
</svg>
