<?xml version="1.0" encoding="UTF-8"?>
<!DOCTYPE svg PUBLIC "-//W3C//DTD SVG 1.1//EN" "http://www.w3.org/Graphics/SVG/1.1/DTD/svg11.dtd">
<!-- Creator: CorelDRAW 2019 -->
<svg xmlns="http://www.w3.org/2000/svg" xml:space="preserve" width="15mm" height="15mm" version="1.1" style="shape-rendering:geometricPrecision; text-rendering:geometricPrecision; image-rendering:optimizeQuality; fill-rule:evenodd; clip-rule:evenodd"
viewBox="0 0 1500 1500"
 xmlns:xlink="http://www.w3.org/1999/xlink">
 <defs>
  <style type="text/css">
   <![CDATA[
    .str0 {stroke:black;stroke-width:20;stroke-miterlimit:22.9256}
    .str1 {stroke:red;stroke-width:20;stroke-miterlimit:22.9256}
    .fil0 {fill:black}
    .fil1 {fill:red}
    .fil2 {fill:white}
   ]]>
  </style>
 </defs>
 <g id="Слой_x0020_1">
  <metadata id="CorelCorpID_0Corel-Layer"/>
  <rect class="fil0 str0" x="-3.53" y="3.53" width="1500" height="1500"/>
  <g id="_722904576">
   <rect class="fil1 str1" x="837.73" y="468.25" width="58.88" height="173.63"/>
   <path class="fil2" d="M473.92 1026.27c5.62,-0.69 180.93,17.27 238.27,17.39 44.25,0.1 84.7,-1.48 127.48,-4.52 24.75,-1.76 98.02,-15.08 115.23,-11.83 4.94,-3.7 -2.22,-7.32 28.85,-5.55 0.23,14.08 2.66,22.07 -5.17,32.77 7.69,50.74 -51.19,116.74 -78.63,135.99 -56.15,39.42 -102.33,33.83 -184.21,33.83 -83.18,0 -126.49,4.47 -182.64,-35.41 -40,-28.41 -84.02,-96.22 -76.54,-138.16 -4.81,-7.17 -4.48,10.71 -5.76,-12.9 -1.02,-18.88 4.13,-13.83 6.08,-16.51l17.04 4.9zm-57.47 -224.06c70.05,-0.35 181.13,23.69 299.29,23.87 127.76,0.19 225.88,-23.9 302.77,-24.06l-14.11 186.8c-161.83,12.76 -255.99,39.17 -432.87,16.77 -34.79,-4.4 -112.93,-9.28 -138.04,-18.76 -9.62,-24.17 -14.28,-147.52 -17.04,-184.62zm38.67 -78.04c46.98,5.81 71.74,34 134.61,16.37 23.67,-6.64 34.1,-15.76 62,-17.03 91.81,-4.15 55.25,49.08 197.93,4.01 54.22,-17.13 87.74,12.65 132.86,18.1 -0.34,41.81 -1.01,27.65 -44.41,33.12 -118.32,14.93 -227.63,22.18 -347.47,9.67 -46.27,-4.83 -88.65,-11.19 -135.8,-12.81l0.28 -51.43zm3.09 -34.3c3.66,-66.59 73.22,-123.62 140.69,-128.44 110.18,-7.87 74.54,-88.58 80.61,-185.05l76.34 0.04c3.49,78.74 -19.72,170.99 57.52,183.37 0.8,107.79 -15.5,99.23 61.98,99.66 21.38,0.12 29.75,2.22 44.66,-7.04l0.56 -52.68c33.25,6.47 58.54,72.23 60.06,113.19 -27.38,-1.86 -38.66,-13.06 -63.93,-17.44 -23.79,-4.12 -44.34,-4.58 -67.7,0.91 -39.59,9.3 -62.02,32.71 -131.16,6.26 -114.61,-43.86 -102.03,51.81 -253.57,-9.81 -0.78,-0.32 -2.44,-0.08 -3.02,-1.44 -0.58,-1.39 -2.09,-0.91 -3.04,-1.53zm386.89 -61.82c-0.27,-32.65 -0.06,-65.3 -0.11,-97.95 -0.04,-26.6 -5.36,-41.29 11.6,-61.13 2.86,-3.35 2.73,-3.18 5.25,-5.55 4.3,-4.05 1.87,-1.83 6.38,-4.95 26.86,23.27 22.47,31.96 22.43,75.17 -0.03,31.3 -0.14,62.6 -0.05,94.07l-45.5 0.34zm-56.3 -251.9c26.76,0.63 24.63,-2.16 45.72,-7.54 17.09,52.06 20,54.49 1.27,79.11 -29.6,38.87 -19.62,21.44 -22.91,80.14 -30.97,-10.93 -25.06,-31.04 -25.06,-68.78l0.98 -82.93zm4.95 -71.42c42.2,0 35.8,37.31 10.55,41.41 -17.89,2.9 -64.18,0.37 -85.01,0.37 -57.23,0 -110.99,12.77 -105,-25.89 2.58,-16.7 12.81,-15.87 30.53,-15.89l148.93 0zm-78.01 951.07c99.58,0 151.66,1.01 213.59,-50.4 44.97,-37.34 84.43,-94.46 82.81,-181.78 0.77,-0.68 1.89,-1.4 2.49,-1.81 0.58,-0.4 1.73,-1.27 2.44,-1.74 11.63,-7.74 12.82,-5.53 16.08,-15.2 2.26,-6.69 3.17,-25.51 3.53,-34.34 1.02,-25.69 2.55,-45.62 5.21,-70.15 3.16,-29.13 15.18,-110.24 2.09,-130.97l-31.92 0.17c1.15,-54.92 1.21,-92.92 -19.42,-133.75 -14.14,-27.99 -44.29,-64.5 -71.9,-76.72 -0.63,-30.12 6.43,-74.38 -8.61,-94.59 -17.19,-23.1 -27.8,-30.23 -36.6,-63.46 -7.17,-27.08 -15.12,-48.89 -21.51,-77.8 -6.07,-27.44 -18.82,-45.94 -47.4,-49.44 -28.93,-3.53 -175.92,-4.32 -193.72,4.61 -36.12,18.12 -59.09,93 36.1,98.55 0.07,38.05 9.01,125.8 -12.89,144.58 -22.2,19.04 -57.39,-1.84 -118.3,34.3 -88.68,52.61 -94.89,124.07 -94.82,214.01 -60.09,-1.6 -34.41,7.87 -28.69,136.51 1.05,23.64 2.75,43.2 4.55,67.1 2.1,27.92 -1.62,39.16 23.87,45.28 1.56,91.14 32.18,143.52 81.16,184.87 61.43,51.87 112.6,52.17 211.86,52.17z"/>
   <path class="fil1" d="M576.74 939.12c-9.74,-9.55 -19.39,-17.02 -25.12,-29.12 9.46,-14.14 55.47,-44.95 38.2,-62.14 -16.79,-16.72 -45.44,29.89 -62.02,38.63 -17.04,-8.79 -45.4,-55.13 -62.08,-38.67 -18.16,17.91 18.65,34.84 38.11,62.18 -11.42,23.3 -46.11,33.81 -41.08,62.07 26.79,17.48 40.44,-24.32 65.05,-37.93 15.48,8.84 44.42,56.65 61.85,37.82 13.5,-13.52 -5.46,-25.54 -12.91,-32.84z"/>
   <path class="fil1" d="M933.05 910c12.93,-25.71 60.01,-47.15 34.47,-63.86 -14.66,-9.59 -30.13,14.43 -45.15,29.23 -8.26,8.13 -5.17,6.36 -15.15,11.18 -16.26,-9.13 -45.09,-55.23 -61.9,-38.51 -16.95,16.83 28.91,45.96 38.11,61.96 -10.43,24.11 -50.35,36.48 -39.23,63.1 26.78,12.92 38.66,-24.81 63.02,-37.06 21.86,8.46 43.62,54.55 62.01,36.14 13.22,-13.3 -3.36,-24.17 -11,-31.57 -10.1,-9.79 -19.71,-15.66 -25.18,-30.61z"/>
   <path class="fil1" d="M713.54 886.84c-7.63,-10.09 -16.48,-17.55 -25.53,-27.18 -9.45,-10.05 -13.37,-16.78 -30.53,-14.9l-7.17 11.98c15.18,33.1 29.12,27.83 42.69,53.26 -13.63,29.41 -60.49,46.69 -35.37,65.24 12.83,9.46 23.4,-6.84 30.83,-14.42 10.5,-10.7 17.46,-21.4 32.13,-26.85 19.46,21.69 36.91,44.61 57.57,41.76 12.27,-17.11 3.43,-22.58 -8.68,-34.27 -13.51,-13.02 -20.97,-17.25 -27.21,-31.46 14.69,-25.28 54.87,-38.34 35.39,-65.3 -18.13,-1.89 -20.83,5.42 -32.2,16.91 -6.17,6.24 -8.65,9.39 -13.89,14.3 -11.3,10.56 -3.5,6.63 -18.03,10.93z"/>
  </g>
 </g>
</svg>
