<?xml version="1.0" encoding="UTF-8"?>
<!DOCTYPE svg PUBLIC "-//W3C//DTD SVG 1.1//EN" "http://www.w3.org/Graphics/SVG/1.1/DTD/svg11.dtd">
<!-- Creator: CorelDRAW 2019 -->
<svg xmlns="http://www.w3.org/2000/svg" xml:space="preserve" width="15mm" height="15mm" version="1.1" style="shape-rendering:geometricPrecision; text-rendering:geometricPrecision; image-rendering:optimizeQuality; fill-rule:evenodd; clip-rule:evenodd"
viewBox="0 0 1500 1500"
 xmlns:xlink="http://www.w3.org/1999/xlink">
 <defs>
  <style type="text/css">
   <![CDATA[
    .str0 {stroke:black;stroke-width:20;stroke-miterlimit:22.9256}
    .fil0 {fill:black}
    .fil1 {fill:red}
    .fil2 {fill:white}
   ]]>
  </style>
 </defs>
 <g id="Слой_x0020_1">
  <metadata id="CorelCorpID_0Corel-Layer"/>
  <rect class="fil0 str0" x="-3.53" y="3.53" width="1500" height="1500"/>
  <polygon class="fil1 str0" points="523.79,170.17 523.79,421.93 370.12,538.38 370.12,624.72 370.12,783.65 366.27,845.02 383.88,847.32 404.69,853.08 736.23,852.28 753.74,845.95 761.18,834.78 761.99,800.96 761.99,535.23 621.4,437.01 612.16,425.08 612.16,385.55 612.16,319.46 612.16,265.96 612.16,190.43 612.16,170.17 "/>
  <g id="_1111251408">
   <path class="fil2" d="M1118.17 681.14l0 -270.85c66.46,0 126.96,62.69 126.96,129.78l0 8.46c0,72.11 -59.75,127.02 -126.96,132.61zm-812.57 8.47c0,88.49 34.53,173.93 82.99,238.64 4.41,5.88 6.48,7.95 11.29,14.11 19.72,25.21 52.7,52.37 78.25,71.28 20.94,15.5 38.09,23.82 62.58,36.17 153,77.18 360.04,31.14 468.11,-91.49 32.02,-36.34 88.72,-121.9 89.6,-161.5 147.21,0 262.39,-112.52 262.39,-248.29 0,-73.84 -33.74,-139.99 -71.22,-177.06 -42.64,-42.2 -107.17,-76.86 -171.42,-76.86l0 -90.29 -516.32 0 0 228.54c0,8.51 13.41,14.9 25.79,24.99l78.66 65.23c3.92,3.89 5.58,-0.13 5.58,8.53l0 262.39c0,16.82 -11.38,22.57 -28.21,22.57l-234.18 0c-13.94,0 -25.39,-11.45 -25.39,-25.39l0 -256.75c0,-8.99 19.26,-21.38 26.12,-27.49 12.5,-11.14 86.73,-66.11 86.73,-76.91l0 -225.71 -231.35 0 0 485.29z"/>
   <path class="fil2" d="M339.46 1293.39l742.03 0c21.29,0 37.64,-13.02 48.75,-24.61 8.59,-8.97 81.28,-126.56 83.86,-136.21l-1007.25 0c22.67,33.86 47.77,81.06 69.39,114 11.39,17.36 27.72,46.82 63.22,46.82z"/>
   <path class="fil2" d="M565.17 548.53c57.28,0 45.64,-70.53 5.64,-70.53 -51.61,0 -47.76,70.53 -5.64,70.53z"/>
  </g>
 </g>
</svg>
