<?xml version="1.0" encoding="UTF-8"?>
<!DOCTYPE svg PUBLIC "-//W3C//DTD SVG 1.1//EN" "http://www.w3.org/Graphics/SVG/1.1/DTD/svg11.dtd">
<!-- Creator: CorelDRAW 2019 -->
<svg xmlns="http://www.w3.org/2000/svg" xml:space="preserve" width="15mm" height="15mm" version="1.1" style="shape-rendering:geometricPrecision; text-rendering:geometricPrecision; image-rendering:optimizeQuality; fill-rule:evenodd; clip-rule:evenodd"
viewBox="0 0 1500 1500"
 xmlns:xlink="http://www.w3.org/1999/xlink">
 <defs>
  <style type="text/css">
   <![CDATA[
    .str0 {stroke:black;stroke-width:20;stroke-miterlimit:22.9256}
    .fil0 {fill:black}
    .fil1 {fill:red}
    .fil2 {fill:white}
   ]]>
  </style>
 </defs>
 <g id="Слой_x0020_1">
  <metadata id="CorelCorpID_0Corel-Layer"/>
  <rect class="fil0 str0" x="-3.53" y="3.53" width="1500" height="1500"/>
  <g id="_1355867808">
   <polygon class="fil1 str0" points="873.12,1001.09 1091.95,1001.09 980.55,1122.6 "/>
   <path class="fil2" d="M367.3 1408.28c-27.75,-36.06 -13,-117 -4.19,-160.87 45.2,-224.89 35.21,-274 6.2,-509.52 -6.57,-53.35 -17.22,-115.39 -18.21,-169.34 -0.76,-41.26 41.7,-100.95 59.87,-127.69 84.34,-124.08 78.85,-158.98 79.34,-296.13l64.21 0.42c-0.04,101.49 -6.4,143.84 37.64,225.98 27.8,51.84 82.11,125.44 96.11,164.42 14.38,39.99 -10.72,184.78 -16.78,234.43 -9.39,76.88 -20.74,161.05 -20.58,239.65 0.14,72.75 10.69,137.86 24.44,206.09 10.52,52.17 34.06,149.12 2.29,192.9l-310.34 -0.34zm111.92 -1325.93c2.83,-3.03 -2.93,-2.56 9,-3.59l77.41 1.32c1.42,8.1 3.13,36.22 -1.6,43.53l-84.42 -0.75 -0.39 -40.51zm-122.79 1347.74l331.54 0c16.84,-22.39 22.14,-33.23 25.75,-66.72 7.41,-68.7 -24.24,-172.11 -34.49,-252.1 -23.65,-184.61 25.06,-356.72 35.29,-528.94 5.41,-91 -78.93,-152.26 -122.18,-261.72 -21.68,-54.86 -16.98,-111.79 -16.32,-174.65 8.47,-4.8 9.55,-2.1 10.7,-13.71 0.67,-6.69 -0.02,-18.05 -0.02,-25.25 -0.02,-19.26 2.75,-36.51 -5.4,-47.99l-117.64 0c-10.72,14.77 -6.93,57.94 -4.87,80.66l9.68 5.63c0.33,163.15 1.84,160.23 -84.72,298.06 -23.59,37.55 -56.91,78.09 -53.57,136.7 9.75,170.88 58.63,344.27 36.02,526.66 -11.72,94.51 -53.63,213.7 -27.48,292.54 4.7,14.17 11.37,21.85 17.71,30.83z"/>
   <path class="fil2" d="M970.27 1403.06l12.66 -10.55c3.95,3.51 7.45,8.21 12.98,10.75 4.52,4.38 2.72,-5.36 3.91,5.64 -9.78,1.98 -26.79,3.3 -33.65,-1.64 0.91,-9.45 -0.76,0.14 4.1,-4.2zm2.76 -342.5c-0.78,-21.11 16.9,-18.37 19.83,-9.05 4.08,12.94 -8.33,18.04 -19.83,9.05zm44.33 -55.49c-16.64,28.03 -29.79,17.29 -39.57,18.54 -44.1,5.67 -29.05,77.23 16.09,61.86 19.82,-6.74 21.09,-23.98 19.08,-47.22 8.39,-3.72 24.08,-23.69 37.85,-34.63 3.64,-3.81 -1.34,-2.46 8.7,-3.34l33.05 0.19c0.92,11.6 0.96,2.26 -3.02,6.06 -4.84,3.54 -21.45,21.92 -25.99,27.5 -8.61,10.57 -18.14,19.84 -26.97,30.2l-39.54 42.68c-6.09,7.4 -7.23,11.13 -15.88,15.06l-104.57 -115.21c-3.68,-5.3 -4.32,6.69 -2.87,-6.3l147.23 0.06c-1.15,7.22 0.45,2.03 -3.59,4.55zm65.12 -34.43c36,-38.29 33.53,-34.3 67.79,-33.07 -2.91,5.63 -22.42,26.51 -26.52,31.03 -5.62,6.21 -8.62,10.77 -18.21,11.67 -8.12,0.77 -22.11,-0.09 -30.84,-0.13l7.78 -9.5zm-226.16 9.56c-7.87,-3.44 -38,-37.67 -40.3,-42.82l268.03 0.05c-3.67,7.77 -25.59,27.62 -32.26,34.58 -9.33,9.74 -8.65,8.41 -26.32,8.24l-169.15 -0.05zm14.54 449.89l223.75 0c6.77,-7.69 7.22,-8.4 4.02,-18.48 -11,-4.63 -31.51,-3.04 -45.82,-2.95 -26.42,0.16 -22.22,0.5 -35.99,-13.41 -29.54,-29.83 -23.08,-14.23 -23.08,-74.85l0 -148.53c-0.04,-24.39 -3.66,-27.16 9.87,-40.09 17.26,-16.5 29.55,-33.88 47.11,-51.14 14.94,-14.68 54.43,-62.53 69.49,-76.75l48.1 -52.44c36.44,-40.8 10.37,-35.65 -29.59,-35.54 6.31,-12.38 29.73,-20.87 24.83,-37.09 -16.42,-19.56 -42.76,33.13 -58.45,36.68 -18.37,4.16 -298.4,-3.84 -322.75,2.1 -6.75,16.78 15.34,33.74 35.03,55.56l94.94 103.86c17.29,16.94 30.57,35.84 47.99,52.53 12.93,12.39 12.13,11.44 11.98,35.44l0.05 201.1c-1.11,10.97 -15.15,20.87 -22,27.78 -13.02,13.15 -9.23,15.04 -34.56,14.8 -14.3,-0.13 -37.14,-1.55 -48.3,2.63 -2.65,8.55 -1.23,12.73 3.38,18.79z"/>
   <path class="fil2" d="M436.69 1130.83l12.87 -0.63 155.39 0.01 3.14 0.03 -0.46 64.21 -170.88 -0.77 -0.06 -62.85zm170.3 -23.19c-8.18,5.09 -158.02,1.9 -169.98,1.42 -3.72,-10.86 -3.52,-156.38 -0.7,-172.12 15.78,-2.72 161.78,-2.87 171.94,0.83 3.22,19.02 0.76,63.76 0.76,85.57 0,7.21 3.47,79.95 -2.02,84.3zm-189.39 105.43c14.72,6.25 103.84,2.82 127.94,2.82 98.66,0 84.02,6.76 84.02,-44.02 0,-39.42 4.76,-235.6 -3.01,-254.55 -17.92,-3.71 -197.53,-3.48 -208.53,1.36 -5.57,12.86 -5.96,278.74 -0.42,294.39z"/>
   <path class="fil2" d="M508.54 617.82c39.01,-9.4 69.51,17.91 76.54,48.26 8.8,37.98 -18.33,70.28 -48.03,76.84 -82.5,18.22 -112.32,-104.91 -28.51,-125.1zm98.22 46.3l-1.36 -6.17 38.43 -0.67c11.33,-2.3 10.18,-18.85 -6.74,-19.96 -13.01,-0.85 -27.8,0.43 -41.35,-0.21 -10.07,-21.44 -38.83,-43.3 -75.37,-42.44 -52.39,1.25 -65.95,40.76 -75.38,42.75 -13.53,-0.02 -46.41,-5.21 -50.15,7.31 -6.02,20.15 30.59,14.13 42.63,14.13 1.67,10.89 -0.69,27.2 1.45,42.81 -15.53,-0.02 -33.21,-2.6 -43.58,4.47 -4.67,26.06 29.67,15.69 51.94,17.46 13.1,14.05 10.79,17.35 28.86,28.67 28.98,18.16 64.18,18.42 93.07,-0.05 12.63,-8.08 14.41,-11.52 22.07,-21.31 6,-7.66 1.15,-4.73 9.1,-7.78 12.79,0.03 47.68,4.93 50.02,-8.79 3.33,-19.57 -32.34,-11.36 -44.57,-13.72l0.93 -36.5z"/>
   <path class="fil1" d="M513.12 661.38c25.33,-13.26 42.59,27.04 19.15,38 -24.77,11.57 -45.23,-24.34 -19.15,-38zm47.03 56.64c8.67,-12.67 -3.34,-10.39 1.51,-21.28 4.8,-10.76 13.32,-4.07 13.69,-16.23 0.41,-13.63 -10.33,-5.68 -14.18,-17.73 -2.68,-8.42 7.27,-11.55 -0.7,-19.99 -8.74,-9.25 -13.53,3.81 -23.97,-3.24 -6.62,-4.47 -4.26,-16.08 -17.72,-11.63 -11.57,3.83 -1.43,11.83 -15.53,14.09 -8.97,1.43 -8.34,-8.67 -19.76,1.99 -5.84,13.04 4.75,10.13 -0.26,19.82 -5.89,11.38 -11.76,2.12 -13.62,14.73 -2.07,14.05 8.42,7.54 12.92,17.18 6.04,12.95 -5.94,7.46 1.33,21.4 13.42,11.04 11.12,-3.05 22.4,2.61 12.15,6.11 0.26,14.29 21.77,13.39 5.43,-7.7 4.2,-12.97 13.79,-14.29 9.29,-1.28 7.1,6.98 18.33,-0.82z"/>
   <path class="fil2" d="M557.61 376.65c-12.58,8.05 -1.09,20.25 5.04,30.86 5.83,10.1 11.03,19.83 16.8,28.91 17.25,27.13 58.33,87.17 68.58,114.3 8.32,22 -14.02,81.16 14.19,63.91 7.47,-4.57 15.5,-49.92 3.48,-77.04 -15.34,-34.6 -62.07,-101.73 -85.72,-142.81 -4.45,-7.73 -10.24,-25.89 -22.37,-18.13z"/>
   <path class="fil2" d="M648.17 1306.77c7.62,51.54 -7.32,64.2 3.07,79.15 18.27,3.15 18.06,-9.15 19.86,-26.8 1.56,-15.27 1.66,-29.76 -0.19,-45.02 -2.23,-18.29 -8.06,-63.75 -16.07,-75.29 -27.86,-5.38 -13.01,25.18 -6.67,67.96z"/>
   <path class="fil2" d="M460.19 549.02c23.61,8.47 17.09,-23.19 71.37,-18.29 15.58,1.41 24.03,5.21 33.31,13.98 16.22,15.34 27.13,1 18.61,-11.58 -27.21,-40.21 -134.66,-26.33 -123.29,15.89z"/>
   <path class="fil2" d="M584.65 833.1c-11.79,-4.7 -86.16,-3.37 -107.82,-3.02 -13.44,0.21 -26.94,7.23 -15.09,18.61 7.04,6.76 57.26,2.99 70.09,2.99 23.31,0 60.07,8.73 52.82,-18.58z"/>
   <path class="fil2" d="M618.11 870.81c23.17,7.14 18.66,-9.93 24.45,-52.34 2.49,-18.27 11.37,-56.52 5.58,-71.4 -22.32,-8.11 -19.34,13.24 -24.36,50.34 -2.52,18.59 -11.01,58.34 -5.67,73.4z"/>
   <path class="fil2" d="M460.11 999.22c14.06,4.55 111.38,4.68 124.61,-0.44 6.39,-25.28 -17.66,-18.59 -62.03,-18.59 -46.59,0 -68.75,-6.59 -62.58,19.03z"/>
   <path class="fil2" d="M460.18 1170.52c13.22,4.59 111.66,4.68 124.48,-0.35 6.72,-25.29 -18.29,-18.59 -61.97,-18.59 -13.75,0 -27.49,0.05 -41.23,-0.08 -17.41,-0.17 -26.09,0.75 -21.28,19.02z"/>
   <path class="fil2" d="M502.54 269.14c10.62,6.65 50.77,8.59 39.52,-12.06 -2.52,-4.63 -44.85,-16.66 -39.52,12.06z"/>
   <path class="fil1" d="M460.36 1047.58c-4.81,21.74 12.7,21.84 17.99,13.34 8.67,-13.93 -10.74,-19.29 -17.99,-13.34z"/>
   <path class="fil1" d="M573.19 1045.51c-14.17,5.75 -6.02,24.83 7.15,19.46 12.37,-5.06 5.2,-24.48 -7.15,-19.46z"/>
   <path class="fil1" d="M529.94 1064.46c4.28,-7.7 4.3,-6.68 2.3,-16.7 -24.27,-10.85 -29.51,20.81 -2.3,16.7z"/>
  </g>
  <ellipse class="fil2 str0" cx="982.71" cy="1055.61" rx="13.7" ry="13.01"/>
 </g>
</svg>
