<?xml version="1.0" encoding="UTF-8"?>
<!DOCTYPE svg PUBLIC "-//W3C//DTD SVG 1.1//EN" "http://www.w3.org/Graphics/SVG/1.1/DTD/svg11.dtd">
<!-- Creator: CorelDRAW 2019 -->
<svg xmlns="http://www.w3.org/2000/svg" xml:space="preserve" width="15mm" height="15mm" version="1.1" style="shape-rendering:geometricPrecision; text-rendering:geometricPrecision; image-rendering:optimizeQuality; fill-rule:evenodd; clip-rule:evenodd"
viewBox="0 0 1500 1500"
 xmlns:xlink="http://www.w3.org/1999/xlink">
 <defs>
  <style type="text/css">
   <![CDATA[
    .str0 {stroke:black;stroke-width:20;stroke-miterlimit:22.9256}
    .fil0 {fill:black}
    .fil2 {fill:red}
    .fil1 {fill:white}
   ]]>
  </style>
   <clipPath id="id0">
    <rect x="4001.98" y="1959.94" width="1547.81" height="1620.58"/>
   </clipPath>
 </defs>
 <g id="Слой_x0020_1">
  <metadata id="CorelCorpID_0Corel-Layer"/>
  <rect class="fil0 str0" x="-3.53" y="3.53" width="1500" height="1500"/>
  <g id="_1356940608">
   <path class="fil1" d="M747.99 1267.63c12.54,88.81 -24.82,77.3 -97.97,77.3 -246.24,0 -200.35,26.94 -200.29,-148.59l0.02 -535.2c-0.01,-33.1 -7.62,-49.29 11.65,-74.86 19.12,-25.37 64.74,-76.44 75.37,-102.24 32.86,-79.76 -19.96,-66.36 104.63,-66.3 5.33,25.94 10.27,50.43 20.84,73.07 11.89,25.48 67.4,83.54 79.24,106.59 10.5,20.45 4.6,58.91 4.55,85.49l-124.26 1.87c2.99,14.59 8.54,10.54 25.4,10.22l98.96 0.35c-2.74,91.62 -0.09,187.12 -0.09,279.19 0,91.18 -3.92,191.11 2.08,281.22l-167.64 -0.36c-12.52,0.39 -10.88,-0.52 -14.38,7.5 3.67,2.83 1.13,1.64 6.67,3.32 12.47,3.78 150.48,-0.37 175.22,1.43zm-196.51 -862.47c-0.22,-17.87 -2.3,-90.99 0.95,-102.84 3.22,-11.75 7.47,-5.38 3.59,-18.2 -12.02,-39.74 4.13,-36.38 -0.38,-63.02l84.46 -0.14c-3.26,23.68 10.9,32.06 0.38,62.44l-52.28 1.89c5.53,24.49 41.05,1.44 53.56,12.7 6.9,11.59 3.83,88.39 2.63,108.01l-92.91 -0.84zm70.84 -195.83c-19.31,-0.28 -62.59,3.31 -70.96,-2.84 3.36,-4.39 -6.71,-3.18 7.01,-5.73l84.56 1.95c0.36,-0.61 1.28,0.64 1.89,1.01 -2.87,6.31 6.65,6.03 -22.5,5.61zm29.52 79.93c-0.37,-6.69 2.73,-7.72 3.91,-16.37 2.2,-16 -3.77,-28.65 -4.16,-42.23 -0.36,-12.86 9.21,-16.76 2.88,-39.62 -15.87,-4.44 -75.68,-2.11 -96.23,-2.09 -19.99,0.02 -22.31,4.61 -17.41,27.21 5.1,23.5 1.96,14.86 -0.17,38.83 -1.77,20.02 4.88,28.66 1.84,40.54 -3.77,14.78 -2.57,27.66 -2.54,44.05 0.21,124.13 10.77,115.03 -67.23,213.69 -49.4,62.48 -34.7,54.2 -34.57,149.53 0.17,127.53 -0.02,255.07 -0.02,382.63 0,63.44 0.43,124.88 -2.74,187.92 -4.43,88.29 20.68,82.9 100.94,82.9 39.69,0 158.47,5.2 189.26,-1.35 55.81,-11.89 31.65,-96.45 31.8,-153.02 0.33,-126.61 0.06,-253.27 0.19,-379.86 0.07,-63.72 -2.16,-127.87 1.75,-191.35 2.6,-42.14 -40.6,-82.02 -70.84,-121.6 -51.41,-67.29 -27.29,-126.75 -32.18,-200.15 -0.84,-12.48 -4.14,-13.39 -4.48,-19.66z"/>
   <path class="fil1" d="M719.29 737.31l0.25 449.73 -239.36 0.25c-6.56,-2.58 -4.77,1.79 -4.52,-24.22 0.67,-67.71 -2.72,-406.88 0.92,-428.5 25.37,-3.18 140.52,-0.53 181.76,-0.62l47.31 -0.2c14.03,0.24 10.83,0.93 13.64,3.56zm-252.24 -12.33c-6.41,13.7 -2.12,324.91 -2.15,368.77 -0.06,117.27 -11.35,105.17 35.39,104.99 46.47,-0.18 206.81,3.92 227.56,-1.21 4.74,-8.1 3.41,-18.98 3.3,-28.91l0.09 -418.73c0.36,-25.4 -2.41,-19.43 -2.89,-23.34 -1.05,-8.55 -255,-3.83 -261.3,-1.57z"/>
   <path class="fil2" d="M495.16 781.06c9.77,6.67 164.18,3.25 185.36,3.26 13.44,0 9.8,2.11 14.76,-6.66 -8.48,-9.94 -35.84,-5.04 -48.03,-5.1 -17.4,-0.08 -35.33,-0.28 -52.69,-0.02l-55.45 0.15c-13.41,-0.01 -41.92,-5.73 -43.95,8.37z"/>
   <path class="fil1" d="M650.02 1119.43c26.04,0.01 38.45,4.47 45.29,-6.27 -4.76,-6.9 5.81,-2.48 -9.24,-5.31 -1.2,-0.22 -11.8,-0.11 -13.75,-0.08l-133.21 0.12c-36.91,-0.03 -40.06,-4.8 -43.9,8.29 12.67,7.95 122.35,3.23 154.81,3.25z"/>
   <path class="fil1" d="M550.19 1078.08c-25.59,-0.1 -28.68,-3.29 -32.67,7.35 10.85,9.02 60.15,4.23 77.04,4.23 17.07,0 68.47,3.32 78.61,-4.23 -3.94,-11.33 -2.94,-7.38 -37.01,-7.34l-85.97 -0.01z"/>
   <path class="fil2" d="M562.83 320.17c6.96,9.58 6.26,5.93 34.51,5.9 12.68,-0.01 27.2,1.78 35.59,-2.93 -2.25,-8.69 -0.24,-7.53 -10.38,-8.53 -5.29,-0.52 -16.47,0.17 -22.44,0.19 -6.52,0.01 -13.08,-0.17 -19.56,-0.16 -17.22,0.02 -9.05,-0.4 -17.72,5.53z"/>
   <path class="fil2" d="M572.83 353.09c3.23,11.82 6.35,8.72 21.66,8.57 10.3,-0.11 20,0.4 28.51,-1.37 -2.23,-10.07 1.9,-9.87 -14.57,-9.87 -10.04,0 -29.97,-2.64 -35.6,2.67z"/>
  </g>
  <g style="clip-path:url(#id0)">
   <image x="4001.98" y="1959.94" width="1547.81" height="1620.58" xlink:href="vodka_Images\vodka_ImgID1.png"/>
  </g>
  <path class="fil1" d="M1087.56 1162.69c-6.22,28.35 -15.32,57.8 -23.1,86.37 -9.43,34.62 -11.53,54.16 -53.97,54.06 -43.85,-0.09 -44.67,-20.72 -54.69,-56.65 -7.53,-26.99 -16.71,-56.94 -22.4,-84.62l154.16 0.84zm27.13 -60.09l-208.48 -0.01c6.56,47.66 24.39,110.05 35.03,158.29 4.01,18.18 9.08,63.8 24.71,69.89 12.62,4.92 80.35,3.08 91.19,-0.95 14.39,-8.63 52.55,-199.19 57.55,-227.22z"/>
 </g>
</svg>
